<svg id="svg" version="1.1" xmlns="http://www.w3.org/2000/svg" xmlns:xlink="http://www.w3.org/1999/xlink" width="400" height="400" viewBox="0, 0, 400,400"><g id="svgg"><path id="path0" d="M189.009 78.981 C 166.413 80.075,141.990 88.545,124.946 101.198 C 103.489 117.128,89.036 136.363,80.697 160.087 C 69.113 193.044,72.982 232.423,90.651 261.389 C 91.458 262.713,92.250 264.018,92.410 264.291 C 105.767 287.021,131.458 306.992,158.351 315.550 C 186.057 324.367,219.159 322.663,243.818 311.151 C 244.534 310.817,246.300 309.992,247.744 309.318 C 276.149 296.054,299.368 269.967,309.875 239.513 C 320.922 207.492,317.611 169.510,301.312 141.287 C 300.945 140.651,300.200 139.349,299.657 138.395 C 288.124 118.105,264.568 97.170,244.218 89.124 C 243.441 88.817,242.090 88.244,241.215 87.850 C 233.647 84.449,221.093 81.124,210.884 79.817 C 206.926 79.310,196.397 78.610,194.360 78.718 C 193.962 78.740,191.555 78.858,189.009 78.981 M208.243 88.625 C 231.559 91.641,251.406 100.392,268.590 115.234 C 271.471 117.722,278.254 124.461,279.973 126.542 C 280.370 127.021,281.350 128.193,282.153 129.145 C 308.970 160.961,314.913 208.110,297.028 247.161 C 296.555 248.193,296.168 249.086,296.168 249.145 C 296.168 249.203,295.112 251.185,293.822 253.548 C 257.873 319.400,168.237 332.261,115.691 279.106 C 78.795 241.783,72.351 181.637,100.739 139.552 C 101.382 138.597,102.434 137.035,103.075 136.081 C 107.644 129.283,115.594 120.505,122.487 114.649 C 140.392 99.438,161.934 90.471,185.973 88.225 C 190.195 87.830,204.017 88.079,208.243 88.625 M193.492 101.134 C 188.711 101.616,183.948 103.180,183.948 104.268 C 183.948 104.812,185.723 106.912,186.492 107.277 C 187.982 107.984,189.732 107.332,189.732 106.069 C 189.732 105.720,190.009 105.608,190.846 105.619 C 191.458 105.628,192.208 105.501,192.513 105.338 C 192.910 105.126,193.209 105.146,193.569 105.409 C 194.294 105.939,195.477 105.614,196.026 104.735 C 196.286 104.318,196.531 103.929,196.571 103.872 C 196.700 103.684,198.653 105.000,198.785 105.362 C 198.883 105.633,199.056 105.627,199.544 105.338 C 200.100 105.010,200.283 105.054,201.050 105.700 C 202.172 106.643,203.197 106.902,203.812 106.395 C 204.402 105.910,205.929 103.830,205.929 103.513 C 205.929 102.811,196.697 100.720,194.794 100.991 C 194.635 101.014,194.049 101.078,193.492 101.134 M209.773 101.612 C 209.467 101.958,208.393 103.478,207.385 104.989 C 206.377 106.500,205.247 108.069,204.873 108.476 C 204.014 109.410,204.015 109.852,204.877 110.180 C 205.366 110.366,205.653 110.809,205.888 111.742 C 206.194 112.958,207.297 114.244,208.033 114.244 C 208.214 114.244,208.259 113.617,208.152 112.582 C 207.962 110.736,208.641 108.913,210.227 107.014 C 211.362 105.654,211.727 105.938,213.159 109.293 C 213.877 110.974,214.526 112.124,214.697 112.019 C 214.885 111.903,214.916 112.039,214.783 112.389 C 214.639 112.766,214.666 112.849,214.868 112.649 C 215.423 112.099,213.469 105.455,211.963 102.777 C 210.968 101.007,210.518 100.767,209.773 101.612 M177.867 102.589 C 176.570 104.634,174.382 111.137,174.837 111.593 C 174.917 111.673,174.984 111.553,174.986 111.328 C 174.990 111.022,175.048 111.008,175.216 111.272 C 175.357 111.495,175.866 110.652,176.585 109.004 C 178.160 105.397,178.561 105.318,180.376 108.254 C 181.397 109.904,181.487 110.221,181.488 112.148 C 181.489 113.450,181.607 114.244,181.801 114.244 C 182.335 114.244,183.402 112.903,183.792 111.741 C 183.998 111.129,184.442 110.501,184.780 110.344 C 185.631 109.948,185.551 109.434,184.423 108.056 C 183.888 107.403,183.015 106.153,182.481 105.278 C 181.947 104.403,181.340 103.513,181.131 103.299 C 180.923 103.085,180.557 102.532,180.318 102.069 C 179.671 100.818,178.884 100.985,177.867 102.589 M160.936 108.086 C 147.898 116.144,137.118 129.047,132.477 142.155 C 126.774 158.261,129.649 180.061,139.597 196.144 C 141.788 199.685,141.191 200.486,144.916 189.009 L 147.639 180.622 149.525 178.725 C 153.241 174.986,169.445 164.867,171.728 164.860 C 172.347 164.858,172.131 163.507,171.439 163.046 C 158.432 154.378,153.157 127.179,161.251 110.517 C 163.128 106.653,163.138 106.726,160.936 108.086 M218.679 120.338 C 218.656 122.679,219.225 124.078,220.199 124.078 C 220.467 124.078,219.694 120.009,219.237 119.017 L 218.704 117.860 218.679 120.338 M178.366 124.395 C 177.064 125.081,176.717 125.754,177.404 126.257 C 177.864 126.593,177.854 126.737,177.258 128.456 C 176.495 130.661,176.371 133.536,177.007 134.308 C 177.245 134.598,177.990 135.450,178.662 136.203 L 179.884 137.571 178.457 137.575 C 176.820 137.580,175.176 138.494,174.110 139.992 L 173.463 140.900 174.873 140.839 C 177.676 140.720,177.515 140.575,177.219 142.950 C 176.908 145.440,177.095 148.776,177.609 149.903 L 177.977 150.710 179.444 149.265 C 180.618 148.109,182.503 146.927,183.172 146.927 C 183.232 146.927,183.219 148.222,183.143 149.805 C 183.055 151.626,183.137 153.192,183.367 154.071 C 183.566 154.834,183.768 155.758,183.815 156.124 C 184.057 158.009,185.246 157.885,185.506 155.948 C 185.606 155.202,185.934 154.218,186.235 153.761 C 186.852 152.824,187.003 152.960,187.678 155.055 C 187.863 155.628,188.333 156.397,188.723 156.763 L 189.432 157.429 190.956 156.035 C 191.794 155.268,192.604 154.532,192.755 154.399 C 192.920 154.254,192.575 153.690,191.894 152.993 C 189.916 150.967,190.566 148.370,193.125 148.079 C 199.150 147.392,201.578 149.943,198.282 153.498 C 197.348 154.505,197.339 154.457,198.628 155.299 C 199.224 155.688,200.016 156.273,200.389 156.600 L 201.067 157.195 202.335 155.748 C 203.033 154.953,203.606 154.074,203.609 153.796 C 203.621 152.844,204.146 153.289,204.632 154.664 C 205.591 157.374,205.474 157.286,206.180 155.827 C 207.186 153.750,207.787 150.338,207.448 148.627 C 207.293 147.843,207.247 147.151,207.345 147.090 C 207.717 146.860,209.880 148.151,211.055 149.304 C 211.729 149.965,212.350 150.436,212.435 150.351 C 213.310 149.476,213.685 143.379,212.999 141.181 L 212.786 140.497 214.853 140.704 C 217.216 140.942,217.440 140.703,216.062 139.416 C 214.853 138.287,213.419 137.672,211.998 137.672 L 210.779 137.672 211.795 136.547 C 212.354 135.928,212.898 135.147,213.005 134.811 C 213.112 134.476,213.360 134.201,213.557 134.201 C 214.228 134.201,213.968 129.626,213.220 128.276 C 212.410 126.814,212.413 126.217,213.232 125.990 L 213.883 125.810 213.160 125.239 C 209.465 122.323,205.252 124.218,203.168 129.733 C 202.095 132.573,201.223 134.187,200.666 134.364 C 199.491 134.737,200.423 135.426,201.771 135.182 C 203.016 134.956,203.966 134.266,205.044 132.803 C 206.314 131.081,207.706 129.573,208.028 129.573 C 208.165 129.573,208.198 129.701,208.102 129.857 C 208.006 130.013,208.128 130.733,208.374 131.458 C 210.248 136.978,206.245 141.241,201.273 139.020 C 198.528 137.793,197.427 137.591,196.227 138.092 C 195.300 138.480,195.085 138.481,194.351 138.101 C 193.284 137.549,192.407 137.560,191.323 138.138 C 184.911 141.561,180.175 138.351,182.096 131.884 C 182.528 130.428,182.525 130.306,182.051 129.959 C 181.571 129.608,181.572 129.579,182.069 129.388 C 182.450 129.242,182.821 129.456,183.434 130.176 C 185.647 132.775,187.253 134.189,188.461 134.600 C 190.018 135.131,190.074 134.837,188.720 133.255 C 188.163 132.604,187.708 131.899,187.708 131.687 C 187.708 131.474,187.585 131.075,187.436 130.799 C 187.286 130.522,186.938 129.535,186.664 128.603 C 185.434 124.439,181.787 122.589,178.366 124.395 M122.743 131.840 C 96.226 160.388,88.545 200.151,102.555 236.344 C 103.396 238.517,104.219 240.534,104.383 240.827 C 104.548 241.120,105.318 242.661,106.096 244.252 C 108.117 248.388,109.591 250.981,111.940 254.533 C 121.651 269.217,136.020 282.019,150.708 289.075 L 152.856 290.107 153.205 289.305 C 153.396 288.864,153.559 288.267,153.566 287.978 C 153.625 285.620,158.250 270.000,161.632 260.738 C 164.294 253.447,164.911 251.845,167.397 245.767 C 167.641 245.169,167.789 244.648,167.724 244.610 C 167.659 244.572,167.090 244.281,166.459 243.962 C 165.531 243.494,165.227 243.127,164.871 242.036 C 164.314 240.330,160.231 238.095,160.231 239.496 C 160.231 239.665,160.087 239.713,159.910 239.604 C 159.733 239.495,159.499 239.549,159.390 239.726 C 159.253 239.947,158.215 239.746,156.024 239.073 C 154.282 238.538,147.780 236.575,141.576 234.709 C 135.372 232.844,130.239 231.264,130.169 231.198 C 129.990 231.030,130.520 229.595,132.609 224.584 C 133.604 222.198,134.503 219.969,134.607 219.631 C 134.753 219.156,134.359 218.463,132.879 216.594 C 114.188 192.985,110.548 160.402,123.549 133.087 C 125.362 129.278,125.264 129.126,122.743 131.840 M266.968 133.142 C 279.833 160.038,276.408 192.349,258.203 215.818 C 257.211 217.097,256.237 218.365,256.038 218.635 C 255.736 219.045,255.987 220.026,257.561 224.603 C 258.598 227.615,259.411 230.258,259.368 230.477 C 259.296 230.851,257.813 231.362,245.264 235.343 C 242.957 236.075,238.757 237.428,235.931 238.349 C 231.466 239.804,230.675 239.983,229.907 239.715 C 228.725 239.304,224.048 241.129,222.687 242.534 L 221.784 243.466 222.399 246.028 C 222.737 247.437,223.216 249.306,223.462 250.181 C 224.410 253.545,230.956 274.831,234.180 285.033 C 234.733 286.782,235.321 288.670,235.487 289.226 C 235.965 290.827,236.099 290.840,238.802 289.543 C 289.623 265.158,309.797 201.594,282.429 152.090 C 278.321 144.659,271.605 135.507,267.458 131.690 C 266.736 131.025,266.191 130.435,266.248 130.378 C 266.305 130.321,266.109 130.123,265.812 129.938 C 265.433 129.701,265.774 130.647,266.968 133.142 M216.920 163.059 C 216.920 163.183,217.110 163.556,217.343 163.889 C 217.576 164.222,217.674 164.587,217.560 164.700 C 217.447 164.814,217.484 164.872,217.643 164.828 C 218.861 164.494,224.335 167.171,229.054 170.409 C 231.955 172.399,230.693 170.485,227.332 167.797 C 224.133 165.239,216.920 161.957,216.920 163.059 M190.831 180.847 C 190.747 181.287,190.812 181.581,190.986 181.548 C 191.151 181.516,191.319 181.845,191.359 182.279 C 191.573 184.589,194.321 190.796,194.370 189.082 C 194.376 188.883,194.683 188.351,195.051 187.901 C 195.731 187.070,195.567 185.419,194.748 184.858 C 194.065 184.391,192.884 182.496,193.078 182.180 C 193.207 181.973,193.170 181.910,192.987 182.023 C 192.818 182.127,192.297 181.734,191.828 181.150 L 190.976 180.087 190.831 180.847 M166.770 222.962 L 165.376 224.377 168.061 225.007 C 169.537 225.354,170.985 225.575,171.278 225.498 C 172.320 225.226,172.550 226.001,173.211 232.000 C 173.831 237.632,174.200 239.479,174.704 239.479 C 174.831 239.479,175.173 239.557,175.464 239.651 C 175.770 239.750,175.872 239.720,175.705 239.579 C 175.536 239.436,175.476 238.492,175.560 237.310 C 175.703 235.314,175.710 235.300,176.042 236.298 C 176.405 237.387,176.842 239.498,176.772 239.823 C 176.669 240.304,177.990 240.358,178.932 239.911 C 179.745 239.525,179.926 239.296,179.809 238.802 C 179.657 238.155,178.361 234.886,177.824 233.796 C 177.656 233.453,177.583 232.998,177.663 232.783 C 177.767 232.505,177.880 232.559,178.058 232.972 C 178.196 233.290,178.829 234.432,179.465 235.510 C 180.101 236.588,180.849 237.890,181.128 238.402 C 181.406 238.915,181.633 239.182,181.634 238.994 C 181.634 238.807,181.826 238.612,182.060 238.561 C 182.433 238.479,176.444 227.155,175.296 225.771 C 175.126 225.566,175.052 225.333,175.132 225.254 C 175.212 225.174,174.657 225.206,173.900 225.325 C 173.140 225.444,172.401 225.424,172.249 225.279 C 172.079 225.118,172.156 225.018,172.449 225.018 C 173.583 225.018,173.119 224.357,171.033 223.002 C 168.306 221.229,168.475 221.231,166.770 222.962 M218.951 223.018 C 216.290 224.811,216.379 224.717,217.146 224.918 C 217.495 225.009,217.710 225.199,217.622 225.340 C 217.369 225.750,219.485 225.615,221.814 225.073 C 224.415 224.467,224.541 224.210,222.968 222.713 C 221.448 221.267,221.562 221.259,218.951 223.018 M213.785 227.260 C 212.546 229.389,210.565 232.923,208.744 236.255 C 207.824 237.940,207.664 238.433,207.975 238.625 C 208.393 238.883,209.111 238.461,209.111 237.957 C 209.111 237.639,211.378 233.934,211.719 233.695 C 211.832 233.615,212.016 233.257,212.128 232.899 C 212.240 232.542,212.440 232.249,212.572 232.249 C 212.705 232.249,212.175 233.776,211.396 235.643 C 209.701 239.702,209.727 239.382,211.063 239.753 C 212.535 240.162,213.160 240.134,213.160 239.659 C 213.160 239.440,213.369 238.335,213.625 237.203 C 214.141 234.916,214.765 234.670,214.537 236.843 C 214.340 238.730,214.593 239.466,215.344 239.185 C 215.924 238.967,217.763 226.259,217.318 225.539 C 216.667 224.486,214.897 225.347,213.785 227.260 M220.246 248.739 C 219.610 249.208,218.829 249.734,218.510 249.906 C 217.445 250.485,216.733 251.677,217.549 251.517 C 217.919 251.445,219.178 251.221,220.347 251.021 L 222.472 250.656 222.289 249.506 C 221.978 247.564,221.886 247.530,220.246 248.739 M173.288 281.603 C 172.556 283.109,172.339 282.943,176.975 284.435 C 180.907 285.701,181.309 285.685,181.809 284.235 L 182.184 283.148 181.151 282.717 C 180.582 282.479,179.971 282.281,179.791 282.276 C 179.612 282.271,178.211 281.837,176.679 281.312 L 173.894 280.356 173.288 281.603 M214.172 280.848 C 213.854 280.990,212.260 281.512,210.629 282.008 C 207.440 282.976,207.360 283.061,207.970 284.811 C 208.331 285.845,208.274 285.852,213.377 284.166 C 216.914 282.997,216.851 283.056,216.143 281.572 C 215.650 280.537,215.219 280.379,214.172 280.848 M171.090 285.824 C 170.594 287.004,170.914 287.662,172.165 288.032 C 172.680 288.184,174.524 288.834,176.263 289.476 C 179.821 290.789,179.766 290.793,180.201 289.177 C 180.607 287.669,180.734 287.761,176.139 286.208 C 171.484 284.635,171.586 284.643,171.090 285.824 M213.160 286.230 C 208.888 287.761,209.054 287.633,209.540 289.031 C 210.071 290.557,209.976 290.537,212.493 289.679 C 219.015 287.458,218.959 287.496,218.188 285.872 C 217.607 284.647,217.571 284.649,213.160 286.230 M169.000 290.166 C 167.568 292.097,167.620 292.149,172.668 293.846 C 178.187 295.701,178.073 295.685,178.436 294.644 C 179.119 292.687,179.316 292.826,173.050 290.833 C 169.408 289.675,169.369 289.668,169.000 290.166 M215.618 291.105 C 210.385 292.938,210.842 292.610,211.345 294.178 L 211.774 295.515 212.973 295.139 C 221.197 292.560,221.244 292.534,220.539 290.971 C 219.906 289.567,220.018 289.564,215.618 291.105 " stroke="none" fill="#df3524" fill-rule="evenodd"></path><path id="path1" d="M208.462 19.580 C 207.234 20.367,206.914 21.436,206.231 27.043 C 205.883 29.906,204.761 38.515,203.739 46.174 C 201.379 63.850,201.382 63.919,204.338 63.919 C 206.646 63.919,206.943 63.125,208.235 53.507 C 209.390 44.903,209.247 45.220,210.823 47.799 C 213.410 52.032,221.177 62.658,223.284 64.846 C 226.408 68.091,228.778 68.102,228.778 64.871 C 228.778 63.766,225.704 59.147,218.231 49.024 C 216.939 47.274,215.441 45.199,214.902 44.412 L 213.922 42.982 217.373 39.665 C 219.271 37.841,222.777 34.633,225.163 32.537 C 232.219 26.337,233.685 24.263,231.895 23.010 C 230.107 21.757,227.934 22.992,221.577 28.876 C 214.663 35.276,213.249 36.564,212.068 37.533 C 210.451 38.861,210.484 39.291,211.614 31.526 C 212.861 22.957,212.956 20.787,212.118 19.945 C 211.285 19.110,209.478 18.929,208.462 19.580 M176.555 19.923 C 161.772 23.713,161.286 56.499,175.914 63.196 C 188.548 68.981,199.782 51.722,195.117 33.695 C 192.491 23.545,184.770 17.817,176.555 19.923 M146.678 24.739 C 144.966 26.180,144.963 26.926,146.615 41.099 C 147.423 48.035,148.084 53.930,148.084 54.199 C 148.084 54.652,145.237 51.813,134.049 40.202 C 129.199 35.169,126.838 33.022,125.895 32.785 C 124.232 32.368,122.607 34.257,123.190 35.930 C 123.819 37.735,131.064 45.751,144.956 60.014 L 148.337 63.485 149.365 70.140 C 150.635 78.356,150.986 79.761,151.979 80.615 C 153.332 81.778,155.939 81.040,156.357 79.376 C 156.584 78.471,156.573 78.366,154.906 65.510 C 154.184 59.942,153.265 51.873,152.863 47.578 C 150.968 27.334,150.752 25.774,149.671 24.580 C 148.959 23.794,147.724 23.860,146.678 24.739 M183.777 25.470 C 193.041 29.568,193.198 53.793,183.987 58.066 C 176.816 61.393,170.942 53.466,170.934 40.451 C 170.927 28.840,176.555 22.275,183.777 25.470 M248.989 29.006 C 247.066 30.295,245.855 32.688,242.226 42.372 C 234.837 62.089,236.355 71.282,247.475 74.160 C 256.119 76.398,262.052 71.574,267.539 57.845 C 273.264 43.519,273.979 36.627,269.833 35.716 C 267.455 35.194,266.333 36.927,265.909 41.775 C 265.339 48.296,260.351 61.748,256.871 66.150 C 255.269 68.177,252.504 69.573,250.607 69.313 C 241.502 68.066,241.403 57.998,250.290 37.205 C 252.904 31.090,253.117 30.192,252.158 29.322 C 251.089 28.352,250.110 28.255,248.989 29.006 M109.729 40.218 C 107.835 40.918,107.299 42.765,105.829 53.651 C 104.378 64.393,104.127 65.787,103.723 65.341 C 103.663 65.275,102.604 63.594,101.371 61.605 C 94.407 50.379,94.240 50.165,92.619 50.423 C 91.129 50.660,89.949 51.999,89.949 53.453 C 89.949 54.352,90.538 55.473,93.252 59.739 C 95.068 62.595,98.478 67.990,100.829 71.728 C 113.081 91.205,112.469 90.390,114.308 89.691 C 117.528 88.467,117.221 87.522,109.723 75.563 C 108.701 73.935,107.800 72.430,107.719 72.219 C 107.620 71.962,108.502 72.146,110.402 72.779 C 114.571 74.168,126.161 77.153,129.529 77.706 C 134.177 78.469,136.356 77.420,135.169 74.990 C 134.476 73.572,132.666 72.954,119.328 69.579 C 113.931 68.213,109.465 67.046,109.404 66.984 C 109.208 66.788,110.472 56.391,111.220 52.052 C 112.812 42.820,112.361 39.244,109.729 40.218 M289.243 50.769 C 287.316 51.308,286.092 52.212,284.630 54.175 C 281.693 58.120,282.083 61.998,286.407 71.857 C 288.934 77.618,289.096 79.067,287.563 82.181 C 283.529 90.379,273.950 87.420,271.140 77.108 C 270.286 73.978,268.289 72.761,266.432 74.242 C 263.356 76.693,263.931 79.361,268.755 85.026 C 275.969 93.498,284.084 94.802,290.383 88.503 C 294.906 83.981,295.423 79.299,292.246 71.619 C 288.191 61.818,287.654 59.509,288.981 57.583 C 291.687 53.654,295.850 54.757,298.598 60.128 C 300.870 64.572,302.184 65.555,303.888 64.088 C 305.016 63.117,305.001 60.974,303.849 58.728 C 300.637 52.463,294.718 49.238,289.243 50.769 M71.831 67.387 C 68.779 68.619,70.007 70.870,76.078 75.175 C 79.443 77.562,89.950 85.800,91.974 87.640 L 93.275 88.823 91.974 88.663 C 91.258 88.575,88.590 88.307,86.045 88.067 C 83.500 87.827,79.595 87.443,77.368 87.213 C 71.820 86.641,54.804 86.518,53.796 87.044 C 50.683 88.667,51.462 91.274,55.659 93.275 C 58.613 94.683,58.634 94.701,73.564 108.437 C 84.399 118.405,84.809 118.655,86.796 116.528 C 88.477 114.729,87.725 113.078,83.544 109.386 C 82.374 108.353,80.441 106.638,79.248 105.574 C 78.055 104.511,75.258 102.024,73.033 100.049 C 70.808 98.073,68.205 95.713,67.249 94.804 L 65.510 93.151 67.824 93.144 C 73.487 93.126,89.969 94.554,96.096 95.594 C 103.558 96.860,107.407 94.926,104.916 91.163 C 103.483 88.997,82.445 71.801,77.709 68.924 C 75.156 67.373,73.160 66.851,71.831 67.387 M316.316 74.018 C 313.576 76.283,307.992 81.057,302.386 85.929 C 300.795 87.311,297.216 90.421,294.432 92.841 C 287.381 98.968,287.032 99.489,288.704 101.394 C 290.633 103.591,290.997 103.435,297.903 97.470 L 302.965 93.099 303.953 94.199 C 304.497 94.805,307.127 97.592,309.799 100.394 L 314.656 105.488 309.740 110.083 C 303.442 115.969,303.152 116.456,304.570 118.751 C 306.067 121.174,307.212 120.586,315.534 113.124 C 318.165 110.764,323.312 106.197,326.970 102.974 C 330.629 99.752,334.516 96.327,335.609 95.364 C 338.847 92.508,339.318 91.270,337.818 89.561 C 335.844 87.313,334.723 87.486,331.283 90.570 C 323.088 97.915,319.476 101.108,319.196 101.253 C 318.551 101.589,307.028 89.443,307.477 88.901 C 308.160 88.078,317.833 79.465,319.845 77.889 C 322.952 75.454,323.243 74.453,321.403 72.523 C 320.166 71.227,319.432 71.443,316.316 74.018 M209.192 98.843 C 208.571 99.599,207.329 101.392,206.432 102.828 C 203.815 107.019,203.083 107.410,201.050 105.700 C 200.283 105.054,200.100 105.010,199.544 105.338 C 199.056 105.627,198.883 105.633,198.785 105.362 C 198.653 105.000,196.700 103.684,196.571 103.872 C 196.531 103.929,196.286 104.318,196.026 104.735 C 195.477 105.614,194.294 105.939,193.569 105.409 C 193.209 105.146,192.910 105.126,192.513 105.338 C 192.208 105.501,191.458 105.628,190.846 105.619 C 189.965 105.607,189.732 105.711,189.732 106.119 C 189.732 108.711,185.022 107.430,184.064 104.578 C 183.961 104.272,183.759 103.881,183.615 103.710 C 183.470 103.539,182.868 102.587,182.276 101.594 C 179.943 97.682,179.044 97.201,177.214 98.889 C 173.956 101.892,171.944 107.800,171.234 116.448 C 170.788 121.879,170.705 122.265,169.433 124.767 C 168.541 126.521,168.360 127.100,168.650 127.279 C 168.950 127.464,168.955 127.646,168.673 128.181 C 168.378 128.742,167.483 132.403,167.467 133.119 C 167.464 133.240,167.716 133.179,168.027 132.985 C 168.879 132.453,168.922 132.740,168.274 134.638 C 166.726 139.172,167.597 145.265,170.312 148.897 L 171.028 149.854 171.453 148.897 L 171.879 147.939 172.124 149.022 C 172.485 150.619,173.494 152.043,175.809 154.225 C 176.945 155.296,177.874 156.234,177.874 156.309 C 177.874 156.660,172.608 163.991,172.356 163.991 C 169.442 163.991,182.511 188.700,189.030 195.517 L 190.275 196.819 184.071 209.255 C 179.279 218.862,177.899 221.871,178.007 222.481 C 178.144 223.254,178.085 223.289,175.069 224.241 C 171.438 225.387,171.497 225.650,175.271 225.139 C 176.782 224.935,178.116 224.759,178.236 224.748 C 178.355 224.738,178.453 224.356,178.453 223.900 C 178.453 223.186,178.630 223.004,179.747 222.578 C 181.314 221.979,181.372 222.011,182.473 224.043 L 183.349 225.661 182.768 226.858 L 182.187 228.055 182.802 227.260 C 183.141 226.822,183.516 226.464,183.636 226.464 C 183.757 226.464,184.016 226.822,184.212 227.260 C 185.358 229.816,185.217 229.944,187.846 223.965 C 196.086 205.217,204.122 189.103,215.286 168.942 C 217.974 164.086,217.975 164.081,216.303 162.545 C 215.627 161.924,211.714 156.748,211.714 156.476 C 211.714 156.350,212.415 155.680,213.271 154.986 C 215.318 153.328,216.526 151.518,217.010 149.385 L 217.404 147.650 217.925 148.654 L 218.447 149.658 219.432 148.518 C 222.900 144.506,223.496 135.105,220.424 132.855 C 220.052 132.582,220.128 132.549,220.830 132.676 C 221.304 132.762,221.874 132.977,222.097 133.154 C 222.662 133.604,222.280 131.046,221.523 129.320 C 220.857 127.797,220.844 127.618,221.397 127.498 C 221.975 127.371,220.568 124.503,219.450 123.530 C 218.698 122.874,218.655 122.704,218.655 120.340 C 218.655 111.593,216.157 102.003,213.028 98.738 C 211.391 97.029,210.667 97.049,209.192 98.843 M211.970 102.777 C 213.235 105.010,215.427 112.215,215.121 113.133 C 215.057 113.326,214.303 111.885,213.447 109.929 C 211.688 105.911,211.380 105.632,210.227 107.014 C 208.641 108.913,207.962 110.736,208.152 112.582 C 208.259 113.617,208.214 114.244,208.033 114.244 C 207.296 114.244,206.194 112.958,205.887 111.739 C 205.707 111.022,205.349 110.361,205.093 110.270 C 203.924 109.856,203.854 109.553,204.717 108.631 C 205.177 108.139,206.378 106.500,207.386 104.989 C 210.464 100.371,210.576 100.317,211.970 102.777 M180.318 102.069 C 180.557 102.532,180.923 103.085,181.131 103.299 C 181.340 103.513,181.945 104.403,182.478 105.278 C 183.010 106.153,183.966 107.493,184.601 108.255 C 185.800 109.692,185.808 109.783,184.789 110.311 C 184.450 110.486,184.003 111.129,183.796 111.741 C 183.401 112.904,182.333 114.244,181.801 114.244 C 181.607 114.244,181.490 113.451,181.490 112.148 C 181.490 110.266,181.388 109.887,180.504 108.460 C 178.388 105.043,177.986 105.288,175.516 111.497 C 174.227 114.738,174.381 112.029,175.739 107.592 C 177.399 102.167,179.228 99.961,180.318 102.069 M41.724 102.539 C 40.820 103.173,40.595 104.730,41.249 105.837 C 41.900 106.939,42.566 107.381,54.763 114.799 C 60.196 118.104,66.334 121.888,68.402 123.207 C 75.461 127.709,76.282 128.172,77.489 128.334 C 78.814 128.512,79.548 128.059,80.305 126.595 C 81.347 124.580,81.623 124.783,59.147 111.062 C 55.170 108.634,50.557 105.802,48.896 104.768 C 44.424 101.985,43.102 101.574,41.724 102.539 M342.566 107.251 C 340.511 108.496,335.705 111.470,331.887 113.861 C 328.069 116.252,322.221 119.822,318.890 121.794 C 310.310 126.874,309.197 128.186,311.508 130.497 C 313.010 131.998,312.882 132.061,330.007 121.471 C 335.495 118.077,341.964 114.080,344.383 112.589 C 350.225 108.986,351.202 107.719,349.654 105.751 C 348.498 104.282,346.921 104.615,342.566 107.251 M32.603 120.246 C 31.351 121.630,31.163 124.059,32.231 125.049 C 32.620 125.409,37.012 127.308,41.993 129.269 C 46.973 131.230,51.079 132.858,51.116 132.886 C 51.153 132.915,50.812 133.905,50.357 135.088 C 49.903 136.270,48.652 139.873,47.579 143.095 C 46.505 146.316,45.516 148.952,45.382 148.952 C 44.980 148.952,32.759 144.196,29.816 142.895 C 25.935 141.179,24.006 141.797,24.006 144.756 C 24.006 146.291,23.257 145.932,45.189 154.901 C 49.684 156.739,55.054 158.937,57.122 159.786 C 63.318 162.328,65.076 162.029,65.076 158.434 C 65.076 156.833,64.996 156.785,56.110 153.139 C 53.485 152.061,51.239 151.094,51.118 150.989 C 50.998 150.884,51.596 148.918,52.448 146.621 C 53.300 144.324,54.548 140.785,55.222 138.756 C 55.896 136.728,56.553 135.069,56.683 135.069 C 56.813 135.069,59.438 135.993,62.516 137.123 C 70.901 140.201,71.833 140.274,73.034 137.953 C 74.146 135.803,72.890 134.565,67.462 132.461 C 63.307 130.851,57.114 128.404,45.213 123.671 C 34.942 119.586,33.544 119.207,32.603 120.246 M353.579 122.229 C 350.354 124.956,350.012 125.113,335.041 130.744 C 315.764 137.993,316.123 137.778,317.677 141.140 C 318.630 143.203,319.577 143.048,329.429 139.208 C 333.326 137.688,338.858 135.536,341.721 134.424 C 344.584 133.313,347.090 132.338,347.289 132.259 C 347.931 132.002,347.688 132.584,345.378 136.826 C 341.651 143.668,334.413 155.097,330.937 159.630 C 328.652 162.609,327.874 165.972,329.115 167.502 C 330.410 169.098,332.771 168.406,346.066 162.530 C 363.483 154.832,367.896 152.157,367.896 149.299 C 367.896 146.005,366.237 146.119,358.671 149.935 C 352.783 152.904,340.083 158.785,339.558 158.785 C 339.409 158.785,340.930 156.215,342.937 153.073 C 350.644 141.007,353.628 135.844,355.154 131.940 C 355.485 131.095,356.224 129.670,356.797 128.774 C 359.138 125.114,359.271 122.532,357.157 121.795 C 355.695 121.285,354.529 121.427,353.579 122.229 M183.667 124.440 C 185.197 125.213,185.986 126.309,186.664 128.603 C 186.938 129.535,187.286 130.522,187.436 130.799 C 187.585 131.075,187.708 131.474,187.708 131.687 C 187.708 131.899,188.163 132.604,188.720 133.255 C 190.074 134.837,190.018 135.131,188.461 134.600 C 187.253 134.189,185.647 132.775,183.434 130.176 C 182.821 129.456,182.450 129.242,182.069 129.388 C 181.572 129.579,181.571 129.608,182.051 129.959 C 182.525 130.306,182.528 130.428,182.096 131.884 C 180.175 138.351,184.911 141.561,191.323 138.138 C 192.407 137.560,193.284 137.549,194.351 138.101 C 195.085 138.481,195.300 138.480,196.227 138.092 C 197.427 137.591,198.528 137.793,201.273 139.020 C 206.245 141.241,210.248 136.978,208.374 131.458 C 208.128 130.733,208.006 130.013,208.102 129.857 C 208.198 129.701,208.165 129.573,208.028 129.573 C 207.706 129.573,206.314 131.081,205.044 132.803 C 203.966 134.266,203.016 134.956,201.771 135.182 C 200.423 135.426,199.491 134.737,200.666 134.364 C 201.223 134.187,202.095 132.573,203.168 129.733 C 205.252 124.218,209.465 122.323,213.160 125.239 L 213.883 125.810 213.232 125.990 C 212.411 126.217,212.410 126.816,213.226 128.276 C 213.737 129.191,213.870 129.888,213.869 131.653 C 213.867 134.033,213.974 134.186,215.644 134.197 C 216.395 134.202,219.812 135.884,219.812 136.248 C 219.812 136.395,219.506 136.515,219.132 136.515 C 218.758 136.515,218.048 136.656,217.554 136.828 L 216.655 137.141 217.794 138.582 C 219.048 140.168,219.812 142.308,219.812 144.232 C 219.812 145.483,219.207 146.005,218.847 145.066 C 218.672 144.611,215.804 142.589,215.333 142.589 C 215.152 142.589,215.040 143.884,215.040 145.987 C 215.040 149.707,214.100 152.293,212.028 154.278 L 211.216 155.057 211.060 153.900 C 210.806 152.004,208.537 149.188,208.529 150.759 C 208.522 152.230,206.209 157.918,205.618 157.918 C 205.511 157.918,205.341 157.395,205.239 156.756 C 204.878 154.498,203.628 152.228,203.609 153.796 C 203.606 154.074,203.033 154.953,202.335 155.748 L 201.067 157.195 200.389 156.600 C 200.016 156.273,199.224 155.688,198.628 155.299 C 197.339 154.457,197.348 154.505,198.282 153.498 C 201.578 149.943,199.150 147.392,193.125 148.079 C 190.566 148.370,189.916 150.967,191.894 152.993 C 192.575 153.690,192.920 154.254,192.755 154.399 C 192.604 154.532,191.794 155.268,190.956 156.035 L 189.432 157.429 188.723 156.763 C 188.333 156.397,187.863 155.628,187.678 155.055 C 187.006 152.967,186.851 152.825,186.249 153.743 C 185.956 154.190,185.634 155.085,185.534 155.731 C 185.216 157.783,185.112 157.995,184.624 157.589 C 183.885 156.976,182.876 154.685,182.316 152.350 C 182.020 151.119,181.714 150.116,181.634 150.121 C 181.237 150.145,179.818 152.427,179.529 153.507 C 179.134 154.983,179.050 154.999,178.027 153.796 C 176.126 151.561,175.416 149.397,175.416 145.842 C 175.416 144.053,175.310 142.589,175.180 142.589 C 174.739 142.589,173.684 143.249,172.339 144.366 C 170.582 145.826,170.530 145.802,170.734 143.615 C 170.918 141.645,171.795 139.567,173.093 138.024 C 173.930 137.030,173.844 136.906,172.128 136.632 C 171.464 136.526,170.855 136.334,170.776 136.205 C 170.565 135.864,174.199 134.202,175.168 134.197 C 176.401 134.190,176.570 133.933,176.606 132.007 C 176.625 131.031,176.922 129.431,177.272 128.418 C 177.916 126.558,177.825 126.120,176.790 126.107 C 175.941 126.097,176.863 125.224,178.886 124.122 C 179.892 123.574,182.266 123.731,183.667 124.440 M185.288 133.987 C 185.983 134.724,186.112 135.032,185.879 135.402 C 185.306 136.310,186.727 137.203,187.419 136.370 C 187.794 135.918,189.154 135.762,189.154 136.170 C 189.154 137.086,187.254 138.250,185.759 138.250 C 183.813 138.250,182.736 135.907,183.705 133.781 C 184.133 132.841,184.218 132.852,185.288 133.987 M207.040 133.781 C 208.647 137.308,204.290 140.117,202.101 136.965 C 201.433 136.003,202.421 135.551,203.352 136.393 C 204.098 137.068,205.181 136.450,204.939 135.487 C 204.812 134.981,204.979 134.564,205.564 133.926 C 206.539 132.863,206.618 132.855,207.040 133.781 M196.962 149.548 C 196.963 149.638,196.580 150.078,196.111 150.527 L 195.259 151.344 194.376 150.510 C 193.205 149.405,193.219 149.385,195.227 149.385 C 196.181 149.385,196.962 149.459,196.962 149.548 M197.183 156.348 C 197.702 156.560,198.855 157.423,199.746 158.266 L 201.367 159.798 202.346 158.665 C 203.547 157.276,203.818 157.469,203.374 159.395 C 202.535 163.026,201.162 163.694,199.567 161.245 C 198.247 159.219,196.360 157.339,195.646 157.339 C 194.548 157.339,191.540 159.919,189.957 162.218 L 189.485 162.904 188.635 162.298 C 187.422 161.435,186.524 158.593,187.151 157.604 C 187.293 157.379,187.414 157.325,187.420 157.484 C 187.425 157.643,187.869 158.276,188.406 158.891 L 189.382 160.010 191.236 158.119 C 193.689 155.617,194.677 155.323,197.183 156.348 M209.827 158.650 L 210.337 160.106 208.816 162.989 C 205.851 168.610,198.638 181.558,197.180 183.876 C 195.747 186.155,196.241 186.452,192.126 180.827 C 185.917 172.341,183.612 168.965,180.927 164.425 L 179.730 162.401 180.528 160.521 C 180.966 159.487,181.387 158.510,181.463 158.351 C 181.539 158.192,181.753 158.304,181.938 158.600 C 182.124 158.895,182.961 159.806,183.797 160.624 C 185.897 162.677,186.549 163.838,186.550 165.526 C 186.553 169.713,189.393 171.915,194.794 171.917 C 200.398 171.919,202.517 170.235,203.305 165.155 C 203.595 163.286,203.775 162.869,204.675 161.979 C 205.245 161.415,206.431 159.933,207.311 158.684 C 209.039 156.230,208.979 156.231,209.827 158.650 M21.327 164.010 C 14.536 169.608,15.192 181.937,22.415 184.449 C 27.930 186.366,32.217 184.133,38.885 175.870 C 43.467 170.190,44.982 169.246,48.972 169.580 C 57.057 170.258,58.495 179.124,51.610 185.853 C 47.926 189.455,48.316 192.022,52.624 192.532 C 54.500 192.754,56.265 191.136,57.920 187.679 C 63.276 176.487,62.032 168.813,54.243 164.988 C 47.349 161.603,42.148 163.348,35.583 171.251 C 30.653 177.185,27.856 179.610,25.940 179.610 C 23.023 179.610,20.843 177.005,21.189 173.932 C 21.332 172.668,21.732 171.972,24.576 168.040 C 27.222 164.383,24.688 161.239,21.327 164.010 M191.572 164.872 C 192.025 167.137,198.601 167.222,199.167 164.969 C 199.376 164.135,199.732 164.088,200.134 164.840 C 200.699 165.895,200.482 166.818,199.494 167.564 C 195.573 170.523,187.695 168.106,190.332 164.753 C 191.106 163.769,191.356 163.793,191.572 164.872 M192.801 182.430 C 193.722 183.662,194.598 184.755,194.749 184.858 C 195.567 185.420,195.731 187.070,195.051 187.901 C 194.683 188.351,194.376 188.883,194.370 189.082 C 194.321 190.796,191.573 184.589,191.359 182.279 C 191.319 181.845,191.151 181.516,190.986 181.548 C 190.816 181.580,190.745 181.298,190.821 180.897 C 191.001 179.959,190.895 179.877,192.801 182.430 M163.133 220.083 C 162.473 221.378,160.895 226.677,160.716 228.200 C 160.651 228.756,160.525 229.407,160.435 229.646 C 159.252 232.806,159.191 240.561,160.359 239.393 C 161.064 238.688,162.009 235.719,161.529 235.719 C 161.026 235.719,161.002 235.373,161.372 233.492 C 161.655 232.057,162.834 224.664,162.834 224.329 C 162.834 224.225,163.144 224.217,163.521 224.312 C 164.179 224.477,164.217 224.402,164.412 222.582 C 164.773 219.212,164.174 218.042,163.133 220.083 M225.500 220.008 C 225.237 221.624,225.601 224.440,226.072 224.440 C 226.288 224.440,226.464 224.283,226.464 224.093 C 226.464 222.746,227.201 224.917,227.632 227.536 C 228.782 234.515,228.880 235.477,228.472 235.730 C 227.989 236.029,228.978 239.383,229.621 239.630 C 231.676 240.419,229.148 224.188,226.524 219.747 C 225.897 218.685,225.706 218.734,225.500 220.008 M211.714 223.975 C 211.714 224.390,211.746 224.739,211.786 224.751 C 212.446 224.953,217.567 225.430,217.649 225.297 C 217.711 225.196,216.621 224.772,215.225 224.354 C 213.830 223.936,212.469 223.511,212.201 223.408 C 211.821 223.262,211.714 223.387,211.714 223.975 M206.508 226.143 C 206.508 226.284,206.774 226.707,207.100 227.083 L 207.693 227.766 207.238 226.826 C 206.789 225.901,206.508 225.637,206.508 226.143 M172.196 233.382 C 172.225 236.723,172.327 237.872,172.605 237.964 C 172.986 238.091,172.936 236.553,172.380 231.092 C 172.202 229.345,172.166 229.791,172.196 233.382 M217.354 233.912 C 217.195 236.179,217.166 238.034,217.290 238.034 C 217.729 238.033,217.805 237.243,217.724 233.535 L 217.643 229.790 217.354 233.912 M185.665 233.111 C 185.118 233.578,184.801 233.961,184.960 233.962 C 185.364 233.964,186.996 232.597,186.811 232.412 C 186.728 232.329,186.212 232.643,185.665 233.111 M203.037 232.434 C 203.037 232.650,203.804 233.279,204.628 233.737 C 205.018 233.954,204.930 233.765,204.357 233.154 C 203.556 232.300,203.037 232.017,203.037 232.434 M212.128 232.899 C 212.016 233.257,211.834 233.615,211.722 233.695 C 211.445 233.892,209.614 236.806,209.047 237.950 C 208.616 238.822,209.255 239.720,209.870 239.106 C 210.221 238.755,212.785 232.249,212.572 232.249 C 212.440 232.249,212.240 232.542,212.128 232.899 M177.585 232.959 C 177.585 233.209,177.710 233.639,177.863 233.916 C 178.276 234.660,179.640 238.084,179.808 238.794 C 179.920 239.270,179.740 239.516,179.014 239.879 C 177.930 240.419,176.122 240.537,176.625 240.034 C 176.941 239.718,176.872 239.271,176.090 236.587 L 175.711 235.286 175.563 237.310 C 175.448 238.889,175.511 239.415,175.850 239.701 C 176.200 239.997,176.117 239.998,175.416 239.707 C 174.939 239.509,174.483 239.279,174.403 239.196 C 174.324 239.113,173.673 238.831,172.957 238.569 C 172.242 238.307,171.445 238.007,171.187 237.902 C 170.820 237.752,170.558 238.106,169.977 239.535 C 169.570 240.538,168.503 243.116,167.607 245.264 C 166.180 248.686,164.472 253.019,163.276 256.251 C 159.295 267.017,156.648 275.218,155.016 281.851 C 153.146 289.449,153.036 289.950,152.819 291.897 L 152.633 293.555 155.203 294.742 C 158.102 296.081,161.283 297.325,161.807 297.325 C 162.011 297.325,162.486 295.980,162.955 294.071 C 165.299 284.518,170.886 266.769,175.084 255.531 C 175.969 253.164,176.119 252.937,176.748 253.027 C 179.037 253.353,188.054 255.059,188.186 255.190 C 188.273 255.277,187.115 257.407,185.612 259.923 C 179.861 269.553,174.114 279.706,174.114 280.235 C 174.114 280.368,175.448 280.897,177.079 281.410 C 178.709 281.924,180.522 282.521,181.108 282.738 L 182.172 283.132 182.955 280.756 C 184.601 275.760,188.924 263.323,189.915 260.735 L 190.951 258.028 194.608 258.193 C 196.619 258.284,198.301 258.387,198.345 258.423 C 198.420 258.484,207.375 282.891,207.375 283.037 C 207.375 283.075,207.863 282.927,208.460 282.708 C 209.056 282.489,210.881 281.893,212.514 281.384 C 215.221 280.539,215.466 280.403,215.292 279.852 C 215.007 278.949,209.692 268.636,207.991 265.685 C 207.175 264.270,206.508 263.068,206.508 263.012 C 206.508 262.809,202.902 257.235,202.090 256.182 C 201.068 254.858,200.035 255.174,211.280 253.373 C 216.370 252.558,221.269 251.734,222.165 251.542 L 223.795 251.193 223.405 249.892 C 223.190 249.176,222.750 247.496,222.428 246.158 C 222.105 244.820,221.779 243.664,221.703 243.587 C 221.626 243.511,216.789 244.331,210.952 245.410 C 202.834 246.910,200.232 247.295,199.881 247.049 C 196.940 244.990,193.074 244.849,190.266 246.700 L 189.009 247.528 184.237 246.678 C 181.612 246.211,179.311 245.774,179.123 245.708 C 178.893 245.626,179.201 244.572,180.063 242.484 C 181.505 238.996,181.555 238.679,180.825 237.711 C 180.082 236.726,178.163 233.411,178.163 233.113 C 178.163 232.974,178.033 232.781,177.874 232.683 C 177.715 232.584,177.585 232.708,177.585 232.959 M213.598 237.334 C 213.074 239.688,213.109 239.916,213.953 239.648 C 214.417 239.500,214.507 239.163,214.539 237.460 C 214.589 234.732,214.188 234.679,213.598 237.334 M184.256 245.362 C 184.743 245.899,188.998 246.412,189.424 245.985 C 189.808 245.602,189.691 245.553,188.389 245.553 C 187.581 245.553,186.285 245.470,185.507 245.368 C 184.729 245.266,184.166 245.263,184.256 245.362 M201.764 245.479 C 199.975 245.571,199.826 245.623,200.334 245.978 C 200.814 246.315,201.223 246.313,203.022 245.971 C 205.252 245.546,206.033 245.225,204.604 245.321 C 204.140 245.352,202.862 245.423,201.764 245.479 M221.954 248.111 C 222.037 248.246,222.187 248.873,222.289 249.506 L 222.472 250.656 220.347 251.021 C 219.178 251.221,217.919 251.445,217.549 251.517 C 216.733 251.677,217.445 250.485,218.510 249.906 C 218.829 249.734,219.610 249.208,220.246 248.739 C 221.494 247.819,221.721 247.735,221.954 248.111 M191.601 259.455 C 191.307 259.930,191.550 260.012,192.706 259.824 C 193.291 259.729,193.700 259.538,193.614 259.399 C 193.393 259.042,191.829 259.085,191.601 259.455 M73.882 275.482 C 72.457 276.196,70.734 277.688,62.762 285.115 C 48.201 298.681,44.501 303.466,46.558 306.074 C 48.135 308.072,48.861 307.598,57.057 299.205 C 66.304 289.735,70.155 286.182,69.908 287.346 C 69.806 287.824,68.755 292.379,67.571 297.469 C 65.306 307.207,64.719 310.400,64.062 316.553 C 63.841 318.624,63.502 321.164,63.309 322.198 C 62.624 325.876,63.710 327.908,66.178 327.565 C 67.724 327.350,68.155 326.944,70.237 323.744 C 71.195 322.271,72.413 320.978,74.458 319.261 C 76.039 317.934,78.720 315.676,80.417 314.244 C 82.113 312.813,86.156 309.411,89.400 306.685 C 98.077 299.397,98.666 298.566,96.610 296.510 C 94.582 294.481,93.926 294.835,84.599 302.988 C 76.269 310.268,71.004 314.665,70.918 314.413 C 70.474 313.108,75.768 288.493,77.618 283.260 C 79.595 277.670,77.639 273.599,73.882 275.482 M307.907 278.836 C 306.449 280.570,306.953 282.220,310.645 287.790 L 313.525 292.136 310.259 295.959 C 308.463 298.062,306.224 300.727,305.283 301.880 C 303.269 304.349,303.764 304.241,300.764 302.858 C 293.729 299.616,289.851 299.037,288.799 301.072 C 287.839 302.928,288.769 303.778,294.470 306.258 C 296.597 307.184,300.029 308.754,302.097 309.748 C 317.802 317.295,328.497 321.392,330.843 320.761 C 336.324 319.285,333.298 311.944,317.727 288.937 C 310.161 277.758,309.439 277.015,307.907 278.836 M172.193 283.811 C 171.659 284.843,171.232 284.572,175.850 286.127 C 177.997 286.851,179.966 287.527,180.225 287.629 C 180.562 287.762,180.746 287.614,180.874 287.101 C 180.973 286.709,181.133 286.180,181.230 285.927 C 181.361 285.586,181.229 285.465,180.725 285.462 C 180.350 285.460,178.375 284.899,176.336 284.214 L 172.628 282.970 172.193 283.811 M213.160 284.216 C 211.171 284.896,209.317 285.456,209.038 285.459 C 208.473 285.467,208.400 285.948,208.802 287.006 L 209.072 287.715 213.213 286.257 C 218.100 284.535,217.698 284.785,217.188 283.786 L 216.775 282.980 213.160 284.216 M169.781 288.418 L 169.235 289.639 172.759 290.740 C 174.698 291.346,176.894 292.085,177.640 292.382 L 178.997 292.922 179.303 292.043 C 179.802 290.611,180.230 290.914,175.127 289.084 C 173.536 288.514,171.805 287.856,171.281 287.623 L 170.328 287.198 169.781 288.418 M218.077 287.625 C 217.679 287.832,215.710 288.564,213.702 289.251 L 210.050 290.502 210.410 291.527 C 210.857 292.801,210.816 292.805,215.835 291.092 C 220.021 289.664,220.076 289.617,219.294 288.166 C 218.832 287.310,218.752 287.274,218.077 287.625 M167.137 294.057 C 165.477 297.718,164.252 301.382,164.644 301.517 C 167.371 302.454,171.463 304.089,172.914 304.822 C 173.925 305.333,174.787 305.709,174.832 305.659 C 175.027 305.436,177.874 296.177,177.874 295.763 C 177.874 295.508,177.685 295.300,177.455 295.300 C 176.992 295.300,169.358 292.779,168.541 292.357 C 168.104 292.131,167.896 292.383,167.137 294.057 M216.486 293.932 C 214.100 294.737,212.093 295.439,212.027 295.492 C 211.961 295.545,212.674 297.992,213.610 300.930 L 215.313 306.272 216.333 305.652 C 219.919 303.471,221.895 302.447,223.355 302.013 C 224.269 301.741,225.017 301.449,225.018 301.363 C 225.018 301.278,224.172 299.270,223.138 296.902 C 222.104 294.534,221.258 292.554,221.258 292.502 C 221.258 292.336,220.903 292.443,216.486 293.932 M318.735 299.711 C 319.743 301.341,320.906 303.196,321.319 303.832 C 323.028 306.464,327.758 314.710,327.631 314.837 C 327.503 314.965,308.707 307.069,308.394 306.755 C 308.230 306.591,309.261 305.277,313.469 300.289 C 315.113 298.341,316.558 296.746,316.681 296.746 C 316.803 296.746,317.727 298.080,318.735 299.711 M177.657 298.632 C 177.020 300.362,177.034 300.795,177.726 300.795 C 177.988 300.795,178.188 300.266,178.318 299.225 C 178.605 296.931,178.363 296.714,177.657 298.632 M283.008 307.877 C 282.849 307.929,281.612 308.324,280.260 308.756 C 267.161 312.941,262.705 322.315,269.526 331.340 C 272.662 335.490,274.263 335.956,285.014 335.854 C 295.421 335.755,296.281 335.906,297.653 338.070 C 298.650 339.641,298.711 340.919,297.874 342.650 C 296.750 344.970,295.805 345.394,289.993 346.185 C 283.978 347.004,284.747 351.799,290.817 351.321 C 300.861 350.531,306.750 341.739,301.998 334.628 C 299.326 330.630,295.828 329.809,284.020 330.409 C 277.244 330.754,275.005 329.752,272.711 325.348 C 269.801 319.764,276.277 313.671,284.464 314.289 C 288.813 314.618,290.433 312.997,288.907 309.845 C 288.047 308.068,285.267 307.140,283.008 307.877 M105.423 311.755 C 91.303 315.878,80.908 334.938,87.135 345.289 C 96.397 360.686,122.163 345.203,122.192 324.223 C 122.206 314.647,114.681 309.052,105.423 311.755 M113.047 317.307 C 118.658 320.381,118.523 326.680,112.654 335.685 C 106.428 345.236,97.637 349.025,92.842 344.224 C 89.564 340.943,89.399 337.240,92.263 331.224 C 97.585 320.048,106.793 313.882,113.047 317.307 M253.079 323.967 C 251.087 324.762,250.889 325.983,252.172 329.573 C 252.627 330.846,253.669 333.761,254.488 336.051 C 255.307 338.341,255.941 340.243,255.899 340.276 C 255.856 340.310,254.519 340.837,252.928 341.447 C 251.338 342.057,247.853 343.490,245.186 344.632 C 242.518 345.774,240.288 346.627,240.229 346.528 C 240.171 346.429,239.193 344.071,238.055 341.287 C 235.035 333.899,234.806 333.442,233.840 332.853 C 232.769 332.199,231.906 332.182,230.629 332.788 C 228.617 333.743,228.681 333.984,236.494 354.736 C 239.369 362.372,241.885 369.140,242.085 369.776 C 243.395 373.932,244.937 375.027,247.580 373.679 C 249.998 372.446,249.975 372.290,245.707 360.971 C 243.881 356.129,242.416 352.141,242.451 352.111 C 242.487 352.080,244.403 351.272,246.710 350.314 C 249.017 349.356,252.499 347.858,254.449 346.985 C 256.398 346.112,258.057 345.500,258.134 345.625 C 258.517 346.244,262.298 356.136,263.643 360.037 C 265.539 365.536,265.958 365.930,268.623 364.720 C 270.245 363.984,270.351 363.582,269.568 361.135 C 268.867 358.941,259.317 332.285,257.602 327.732 C 256.148 323.871,255.232 323.108,253.079 323.967 M133.466 326.208 C 130.023 328.307,130.909 329.970,136.549 331.999 C 140.053 333.259,146.940 335.997,147.160 336.218 C 147.327 336.385,140.142 358.869,137.685 365.871 C 135.931 370.869,136.198 372.467,138.870 372.960 C 140.162 373.199,140.904 372.834,141.679 371.579 C 142.355 370.485,153.486 337.828,153.854 335.858 C 154.413 332.866,154.049 332.615,143.276 328.596 C 134.764 325.420,134.759 325.419,133.466 326.208 M216.140 335.560 C 214.603 336.302,214.549 337.006,215.356 345.757 C 215.763 350.167,216.023 353.849,215.935 353.937 C 215.846 354.026,214.958 353.279,213.961 352.276 C 209.913 348.207,199.483 339.313,197.227 338.006 C 194.847 336.628,192.625 337.238,192.625 339.269 C 192.625 340.654,194.365 342.320,209.332 355.272 C 211.087 356.791,212.212 357.967,212.098 358.164 C 211.992 358.347,211.548 359.017,211.111 359.653 C 210.674 360.289,209.324 362.353,208.111 364.239 C 206.898 366.125,205.107 368.728,204.131 370.024 C 198.266 377.812,197.025 381.193,199.942 381.435 C 202.152 381.619,203.095 380.626,208.960 371.945 C 213.452 365.296,216.114 361.557,216.366 361.542 C 216.459 361.537,216.693 363.388,216.887 365.654 C 218.078 379.583,218.294 380.333,221.112 380.333 C 223.630 380.333,224.154 378.334,223.408 371.571 C 223.158 369.311,222.263 360.506,221.418 352.004 L 219.882 336.545 219.108 335.879 C 218.287 335.173,217.186 335.054,216.140 335.560 M164.286 335.874 C 163.438 336.303,162.845 337.363,162.839 338.460 C 162.830 340.048,164.299 340.403,173.391 341.008 C 176.255 341.199,178.680 341.437,178.781 341.538 C 178.882 341.639,178.553 344.584,178.051 348.084 L 177.136 354.447 173.673 354.441 C 171.768 354.438,168.691 354.322,166.835 354.183 L 163.461 353.931 162.714 354.737 C 159.921 357.751,163.648 359.508,172.834 359.508 C 176.236 359.508,176.428 359.539,176.428 360.087 C 176.428 361.011,175.251 373.791,175.133 374.153 C 175.003 374.549,174.037 374.470,167.028 373.487 C 159.762 372.469,157.918 372.713,157.918 374.694 C 157.918 376.577,160.149 377.435,168.114 378.615 C 176.756 379.894,180.701 379.495,181.313 377.278 C 181.578 376.317,181.471 375.268,181.049 374.693 C 180.932 374.534,181.333 369.783,181.940 364.136 C 183.759 347.199,184.277 343.253,184.827 342.153 C 186.127 339.551,186.039 337.369,184.610 336.821 C 182.314 335.940,165.687 335.165,164.286 335.874 " stroke="none" fill="#161515" fill-rule="evenodd"></path><path id="path2" d="M178.964 19.588 C 179.484 19.652,180.265 19.651,180.699 19.585 C 181.134 19.519,180.709 19.466,179.754 19.468 C 178.800 19.469,178.444 19.523,178.964 19.588 M189.154 22.939 C 189.154 22.989,189.577 23.412,190.094 23.879 L 191.034 24.729 190.185 23.789 C 189.393 22.913,189.154 22.716,189.154 22.939 M179.682 24.784 C 179.960 24.856,180.416 24.856,180.694 24.784 C 180.973 24.711,180.745 24.651,180.188 24.651 C 179.631 24.651,179.403 24.711,179.682 24.784 M222.689 27.693 L 221.692 28.778 222.777 27.781 C 223.786 26.854,223.994 26.609,223.773 26.609 C 223.725 26.609,223.237 27.097,222.689 27.693 M229.636 28.561 L 228.055 30.224 229.718 28.643 C 231.263 27.175,231.514 26.898,231.299 26.898 C 231.254 26.898,230.505 27.646,229.636 28.561 M215.169 34.635 L 214.172 35.719 215.257 34.723 C 216.266 33.795,216.474 33.550,216.253 33.550 C 216.205 33.550,215.717 34.038,215.169 34.635 M128.706 34.852 C 129.245 35.409,129.752 35.864,129.831 35.864 C 129.911 35.864,129.535 35.409,128.995 34.852 C 128.455 34.295,127.949 33.839,127.869 33.839 C 127.790 33.839,128.166 34.295,128.706 34.852 M132.466 38.612 C 133.330 39.487,134.102 40.202,134.181 40.202 C 134.261 40.202,133.619 39.487,132.755 38.612 C 131.891 37.737,131.119 37.021,131.039 37.021 C 130.960 37.021,131.602 37.737,132.466 38.612 M217.201 39.841 L 215.329 41.793 217.281 39.922 C 219.095 38.183,219.366 37.889,219.153 37.889 C 219.109 37.889,218.230 38.767,217.201 39.841 M265.882 40.058 C 265.884 40.853,265.940 41.144,266.007 40.705 C 266.073 40.265,266.071 39.614,266.003 39.258 C 265.934 38.903,265.880 39.262,265.882 40.058 M272.530 40.492 C 272.530 41.208,272.586 41.500,272.655 41.142 C 272.724 40.785,272.724 40.199,272.655 39.841 C 272.586 39.483,272.530 39.776,272.530 40.492 M152.200 40.781 C 152.200 41.338,152.260 41.565,152.332 41.287 C 152.405 41.009,152.405 40.553,152.332 40.275 C 152.260 39.996,152.200 40.224,152.200 40.781 M196.201 42.661 C 196.202 44.252,196.250 44.865,196.309 44.025 C 196.368 43.185,196.367 41.883,196.308 41.133 C 196.248 40.382,196.200 41.070,196.201 42.661 M190.667 41.649 C 190.667 42.205,190.727 42.433,190.800 42.155 C 190.872 41.876,190.872 41.421,190.800 41.142 C 190.727 40.864,190.667 41.092,190.667 41.649 M171.000 43.095 C 171.000 43.651,171.059 43.879,171.132 43.601 C 171.205 43.322,171.205 42.867,171.132 42.589 C 171.059 42.310,171.000 42.538,171.000 43.095 M129.573 44.053 C 129.573 44.103,129.996 44.526,130.513 44.993 L 131.453 45.842 130.604 44.902 C 129.812 44.026,129.573 43.829,129.573 44.053 M139.986 46.421 C 141.331 47.773,142.496 48.879,142.576 48.879 C 142.655 48.879,141.620 47.773,140.275 46.421 C 138.930 45.069,137.764 43.962,137.684 43.962 C 137.605 43.962,138.640 45.069,139.986 46.421 M134.490 49.313 C 135.030 49.870,135.536 50.325,135.616 50.325 C 135.696 50.325,135.319 49.870,134.779 49.313 C 134.240 48.756,133.733 48.301,133.654 48.301 C 133.574 48.301,133.951 48.756,134.490 49.313 M139.986 55.098 C 140.850 55.973,141.622 56.688,141.701 56.688 C 141.781 56.688,141.139 55.973,140.275 55.098 C 139.411 54.223,138.639 53.507,138.559 53.507 C 138.480 53.507,139.121 54.223,139.986 55.098 M175.560 56.544 C 176.100 57.101,176.607 57.556,176.686 57.556 C 176.766 57.556,176.389 57.101,175.850 56.544 C 175.310 55.987,174.803 55.531,174.724 55.531 C 174.644 55.531,175.021 55.987,175.560 56.544 M237.557 61.461 C 237.557 62.892,237.605 63.514,237.666 62.843 C 237.727 62.172,237.728 61.001,237.668 60.240 C 237.608 59.480,237.558 60.029,237.557 61.461 M282.647 60.593 C 282.650 61.229,282.709 61.455,282.779 61.096 C 282.848 60.736,282.845 60.215,282.773 59.939 C 282.700 59.662,282.644 59.957,282.647 60.593 M201.658 61.316 C 201.658 61.873,201.717 62.101,201.790 61.822 C 201.863 61.544,201.863 61.088,201.790 60.810 C 201.717 60.531,201.658 60.759,201.658 61.316 M223.427 65.365 C 224.211 66.161,224.917 66.811,224.996 66.811 C 225.076 66.811,224.500 66.161,223.717 65.365 C 222.933 64.570,222.227 63.919,222.148 63.919 C 222.068 63.919,222.644 64.570,223.427 65.365 M244.975 66.323 C 244.975 66.373,245.398 66.796,245.915 67.263 L 246.855 68.113 246.005 67.173 C 245.213 66.297,244.975 66.100,244.975 66.323 M226.537 67.300 C 226.815 67.373,227.270 67.373,227.549 67.300 C 227.827 67.227,227.599 67.168,227.043 67.168 C 226.486 67.168,226.258 67.227,226.537 67.300 M250.690 69.330 C 251.050 69.399,251.571 69.396,251.847 69.324 C 252.124 69.251,251.829 69.195,251.193 69.198 C 250.557 69.201,250.331 69.260,250.690 69.330 M70.571 70.951 C 70.571 71.001,70.994 71.424,71.511 71.891 L 72.451 72.740 71.602 71.800 C 70.810 70.924,70.571 70.728,70.571 70.951 M250.546 74.828 C 250.986 74.894,251.637 74.893,251.992 74.824 C 252.348 74.755,251.988 74.701,251.193 74.703 C 250.398 74.705,250.107 74.761,250.546 74.828 M288.432 78.525 C 288.435 79.161,288.494 79.387,288.563 79.028 C 288.632 78.668,288.630 78.147,288.557 77.871 C 288.485 77.594,288.428 77.889,288.432 78.525 M317.408 79.899 L 316.558 80.839 317.498 79.989 C 318.374 79.197,318.571 78.959,318.348 78.959 C 318.298 78.959,317.875 79.382,317.408 79.899 M311.912 84.816 L 311.063 85.756 312.003 84.906 C 312.879 84.114,313.076 83.876,312.852 83.876 C 312.803 83.876,312.380 84.299,311.912 84.816 M64.714 86.694 C 66.027 86.747,68.174 86.747,69.487 86.694 C 70.799 86.640,69.725 86.596,67.101 86.596 C 64.476 86.596,63.402 86.640,64.714 86.694 M308.604 87.780 C 307.902 88.496,307.392 89.082,307.472 89.082 C 307.551 89.082,308.191 88.496,308.894 87.780 C 309.596 87.064,310.106 86.479,310.026 86.479 C 309.947 86.479,309.307 87.064,308.604 87.780 M280.911 86.967 C 281.189 87.040,281.645 87.040,281.923 86.967 C 282.202 86.895,281.974 86.835,281.417 86.835 C 280.860 86.835,280.633 86.895,280.911 86.967 M83.080 87.835 C 83.359 87.908,83.814 87.908,84.093 87.835 C 84.371 87.762,84.143 87.703,83.586 87.703 C 83.030 87.703,82.802 87.762,83.080 87.835 M310.774 93.131 C 312.837 95.199,314.590 96.891,314.670 96.891 C 314.749 96.891,313.126 95.199,311.063 93.131 C 309.000 91.063,307.246 89.371,307.167 89.371 C 307.087 89.371,308.710 91.063,310.774 93.131 M330.281 91.323 L 329.284 92.408 330.369 91.411 C 330.965 90.863,331.453 90.375,331.453 90.326 C 331.453 90.106,331.209 90.314,330.281 91.323 M67.906 93.344 C 68.746 93.403,70.048 93.402,70.798 93.343 C 71.548 93.284,70.860 93.236,69.270 93.237 C 67.679 93.237,67.065 93.286,67.906 93.344 M75.998 93.625 C 76.357 93.694,76.878 93.691,77.154 93.619 C 77.431 93.546,77.137 93.490,76.500 93.493 C 75.864 93.496,75.638 93.555,75.998 93.625 M336.644 94.505 L 335.647 95.589 336.732 94.593 C 337.328 94.044,337.816 93.556,337.816 93.508 C 337.816 93.287,337.572 93.495,336.644 94.505 M67.245 94.866 C 67.866 95.503,68.440 96.023,68.519 96.023 C 68.599 96.023,68.156 95.503,67.534 94.866 C 66.913 94.230,66.340 93.709,66.260 93.709 C 66.181 93.709,66.624 94.230,67.245 94.866 M59.581 95.879 C 60.120 96.435,60.627 96.891,60.706 96.891 C 60.786 96.891,60.409 96.435,59.870 95.879 C 59.330 95.322,58.824 94.866,58.744 94.866 C 58.665 94.866,59.041 95.322,59.581 95.879 M99.566 96.230 C 100.004 96.297,100.719 96.297,101.157 96.230 C 101.594 96.164,101.236 96.110,100.362 96.110 C 99.487 96.110,99.129 96.164,99.566 96.230 M70.427 97.758 C 71.048 98.395,71.621 98.915,71.701 98.915 C 71.780 98.915,71.337 98.395,70.716 97.758 C 70.095 97.122,69.521 96.602,69.442 96.602 C 69.362 96.602,69.805 97.122,70.427 97.758 M307.592 98.337 C 308.376 99.132,309.082 99.783,309.161 99.783 C 309.241 99.783,308.665 99.132,307.881 98.337 C 307.098 97.542,306.392 96.891,306.312 96.891 C 306.233 96.891,306.809 97.542,307.592 98.337 M209.663 97.975 C 209.270 98.413,208.758 99.037,208.524 99.363 C 208.290 99.689,208.600 99.397,209.213 98.713 C 210.564 97.206,211.291 97.137,212.788 98.374 L 213.883 99.278 212.803 98.229 C 211.505 96.970,210.628 96.899,209.663 97.975 M177.062 98.814 L 175.705 100.158 177.072 98.958 C 178.524 97.685,178.960 97.541,179.610 98.120 C 179.955 98.428,179.958 98.406,179.632 97.975 C 179.040 97.192,178.531 97.358,177.062 98.814 M322.325 98.409 L 321.475 99.349 322.415 98.500 C 323.291 97.708,323.488 97.469,323.265 97.469 C 323.215 97.469,322.792 97.892,322.325 98.409 M61.894 97.849 C 61.894 97.899,62.317 98.322,62.834 98.789 L 63.774 99.638 62.925 98.698 C 62.133 97.822,61.894 97.626,61.894 97.849 M320.011 100.434 L 319.161 101.374 320.101 100.524 C 320.977 99.733,321.174 99.494,320.951 99.494 C 320.901 99.494,320.478 99.917,320.011 100.434 M69.125 104.555 C 69.665 105.112,70.171 105.568,70.251 105.568 C 70.330 105.568,69.954 105.112,69.414 104.555 C 68.875 103.999,68.368 103.543,68.289 103.543 C 68.209 103.543,68.585 103.999,69.125 104.555 M347.144 104.899 C 347.422 104.972,347.878 104.972,348.156 104.899 C 348.435 104.827,348.207 104.767,347.650 104.767 C 347.093 104.767,346.866 104.827,347.144 104.899 M312.927 106.941 L 311.931 108.026 313.015 107.029 C 313.612 106.481,314.100 105.993,314.100 105.945 C 314.100 105.724,313.855 105.932,312.927 106.941 M162.925 106.941 C 162.826 107.220,162.693 107.545,162.628 107.664 C 162.338 108.202,162.816 107.808,163.242 107.158 C 163.504 106.758,163.579 106.435,163.410 106.435 C 163.243 106.435,163.024 106.663,162.925 106.941 M75.922 110.774 C 76.543 111.410,77.117 111.931,77.196 111.931 C 77.276 111.931,76.832 111.410,76.211 110.774 C 75.590 110.137,75.016 109.617,74.937 109.617 C 74.857 109.617,75.301 110.137,75.922 110.774 M308.160 111.424 L 306.725 112.943 308.243 111.508 C 309.078 110.718,309.761 110.035,309.761 109.989 C 309.761 109.773,309.493 110.013,308.160 111.424 M317.408 111.424 L 316.558 112.364 317.498 111.515 C 318.374 110.723,318.571 110.484,318.348 110.484 C 318.298 110.484,317.875 110.907,317.408 111.424 M174.827 111.824 C 174.727 112.280,174.592 112.823,174.527 113.030 C 174.463 113.237,174.529 113.333,174.674 113.244 C 174.994 113.046,175.389 111.374,175.168 111.153 C 175.081 111.066,174.928 111.368,174.827 111.824 M314.373 114.172 L 313.377 115.257 314.461 114.260 C 315.058 113.712,315.546 113.224,315.546 113.175 C 315.546 112.955,315.301 113.163,314.373 114.172 M80.116 114.678 C 80.655 115.235,81.162 115.691,81.241 115.691 C 81.321 115.691,80.945 115.235,80.405 114.678 C 79.865 114.121,79.359 113.666,79.279 113.666 C 79.200 113.666,79.576 114.121,80.116 114.678 M171.015 116.992 C 171.018 117.787,171.074 118.078,171.140 117.639 C 171.207 117.199,171.205 116.548,171.136 116.193 C 171.068 115.837,171.013 116.197,171.015 116.992 M170.666 120.183 C 170.654 120.506,170.469 121.445,170.255 122.269 C 170.041 123.093,169.967 123.705,170.091 123.628 C 170.397 123.439,171.012 120.392,170.833 119.950 C 170.754 119.755,170.679 119.860,170.666 120.183 M79.851 124.257 C 80.235 124.753,80.608 125.107,80.679 125.044 C 80.750 124.980,80.436 124.574,79.981 124.142 L 79.153 123.355 79.851 124.257 M220.824 125.524 C 221.071 126.001,221.338 126.392,221.418 126.392 C 221.497 126.392,221.360 126.001,221.114 125.524 C 220.867 125.047,220.600 124.657,220.520 124.657 C 220.441 124.657,220.578 125.047,220.824 125.524 M168.040 127.269 C 168.040 127.423,168.185 127.549,168.361 127.549 C 168.537 127.549,168.603 127.751,168.509 127.998 C 168.410 128.255,168.458 128.371,168.622 128.270 C 169.053 128.004,168.966 127.343,168.474 127.155 C 168.236 127.063,168.040 127.115,168.040 127.269 M264.801 129.073 C 264.879 129.276,265.233 129.618,265.588 129.835 C 266.203 130.210,266.200 130.193,265.532 129.467 C 264.749 128.617,264.594 128.534,264.801 129.073 M184.813 133.955 C 185.292 134.455,185.683 134.984,185.683 135.129 C 185.683 135.274,185.816 135.310,185.977 135.210 C 186.270 135.029,184.615 133.044,184.171 133.044 C 184.046 133.044,184.334 133.454,184.813 133.955 M205.568 133.922 C 204.697 134.871,204.598 135.216,205.106 135.530 C 205.308 135.655,205.362 135.610,205.242 135.416 C 205.061 135.124,205.434 134.520,206.456 133.446 C 206.666 133.225,206.731 133.047,206.601 133.050 C 206.470 133.053,206.005 133.445,205.568 133.922 M214.317 134.205 C 214.555 134.357,215.130 134.483,215.594 134.486 C 216.713 134.492,216.469 134.325,215.040 134.106 C 214.252 133.985,214.021 134.016,214.317 134.205 M173.825 134.503 C 173.508 134.718,173.625 134.745,174.259 134.603 C 175.322 134.365,175.553 134.200,174.813 134.205 C 174.508 134.208,174.064 134.342,173.825 134.503 M217.932 135.270 C 219.185 135.921,219.301 136.052,218.800 136.248 C 218.298 136.444,218.327 136.477,219.017 136.494 C 219.454 136.506,219.812 136.405,219.812 136.272 C 219.812 136.010,217.152 134.481,216.736 134.504 C 216.598 134.511,217.137 134.856,217.932 135.270 M171.656 135.484 C 170.453 136.214,170.490 136.287,172.234 136.644 C 172.873 136.775,172.988 136.744,172.668 136.528 C 172.430 136.367,171.974 136.228,171.656 136.221 C 171.225 136.211,171.372 136.026,172.234 135.495 C 172.871 135.103,173.261 134.782,173.102 134.782 C 172.943 134.782,172.292 135.098,171.656 135.484 M183.395 135.792 C 183.366 136.516,184.400 138.250,184.862 138.250 C 185.051 138.250,184.916 137.942,184.562 137.565 C 184.208 137.188,183.806 136.505,183.669 136.046 C 183.491 135.452,183.412 135.379,183.395 135.792 M187.170 136.524 C 186.794 136.837,186.589 137.093,186.713 137.093 C 186.837 137.093,187.168 136.887,187.447 136.634 C 188.454 135.722,189.097 136.270,188.132 137.219 C 187.660 137.684,187.534 137.884,187.852 137.665 C 188.550 137.184,189.154 136.491,189.154 136.170 C 189.154 135.725,187.850 135.958,187.170 136.524 M206.798 136.802 C 206.596 137.288,206.221 137.820,205.964 137.985 C 205.604 138.214,205.595 138.258,205.926 138.171 C 206.390 138.051,207.537 136.291,207.304 136.058 C 207.227 135.981,206.999 136.316,206.798 136.802 M173.668 137.073 C 173.760 137.221,173.708 137.421,173.554 137.516 C 173.400 137.611,172.990 138.108,172.644 138.620 C 172.056 139.490,172.084 139.479,173.065 138.451 C 174.126 137.338,174.367 136.804,173.808 136.804 C 173.639 136.804,173.577 136.925,173.668 137.073 M216.474 137.113 C 216.369 137.282,216.329 137.446,216.385 137.477 C 216.440 137.508,216.811 137.791,217.209 138.107 L 217.932 138.680 217.260 137.918 C 216.760 137.350,216.686 137.117,216.971 137.003 C 217.224 136.901,217.237 136.842,217.009 136.827 C 216.820 136.814,216.579 136.943,216.474 137.113 M203.164 137.795 C 203.473 138.045,203.994 138.239,204.321 138.225 C 204.799 138.205,204.764 138.154,204.144 137.967 C 203.719 137.839,203.199 137.645,202.987 137.537 C 202.776 137.428,202.856 137.544,203.164 137.795 M167.262 139.841 C 167.264 140.795,167.318 141.151,167.382 140.631 C 167.447 140.111,167.445 139.330,167.379 138.896 C 167.313 138.461,167.261 138.886,167.262 139.841 M71.873 139.137 C 71.396 139.443,71.153 139.694,71.335 139.695 C 71.516 139.696,71.971 139.440,72.347 139.127 C 73.207 138.411,73.000 138.415,71.873 139.137 M218.456 139.962 C 218.800 140.589,219.125 141.058,219.179 141.005 C 219.319 140.865,218.422 139.186,218.101 138.988 C 217.953 138.897,218.113 139.335,218.456 139.962 M216.834 140.660 C 216.742 140.899,216.854 141.166,217.083 141.254 C 217.549 141.433,217.610 141.189,217.245 140.612 C 217.046 140.298,216.969 140.307,216.834 140.660 M24.991 142.082 C 24.444 142.728,24.444 142.729,25.018 142.251 C 25.336 141.986,25.987 141.713,26.464 141.644 L 27.332 141.518 26.437 141.475 C 25.828 141.446,25.365 141.640,24.991 142.082 M174.620 142.465 C 173.616 143.010,173.578 143.267,174.569 142.816 C 175.171 142.541,175.363 142.556,175.577 142.894 C 175.782 143.218,175.842 143.166,175.845 142.661 C 175.850 141.904,175.699 141.880,174.620 142.465 M217.157 143.619 C 217.999 144.186,218.759 144.837,218.847 145.066 C 219.254 146.126,219.811 145.458,219.767 143.962 L 219.721 142.444 219.550 143.866 C 219.391 145.182,219.346 145.248,218.944 144.758 C 218.370 144.056,216.338 142.589,215.940 142.589 C 215.767 142.589,216.315 143.052,217.157 143.619 M170.687 144.107 C 170.634 145.768,170.726 145.778,172.379 144.297 C 173.095 143.656,173.420 143.257,173.102 143.412 C 172.784 143.566,172.198 144.042,171.800 144.469 L 171.077 145.245 170.904 143.989 L 170.730 142.733 170.687 144.107 M167.792 143.745 C 167.792 143.984,167.904 144.440,168.040 144.758 C 168.197 145.122,168.289 145.176,168.289 144.902 C 168.289 144.664,168.177 144.208,168.040 143.890 C 167.884 143.525,167.792 143.472,167.792 143.745 M175.338 144.324 C 175.338 144.881,175.398 145.108,175.471 144.830 C 175.543 144.552,175.543 144.096,175.471 143.818 C 175.398 143.539,175.338 143.767,175.338 144.324 M217.266 148.012 C 217.933 149.379,218.199 149.819,218.362 149.819 C 218.468 149.819,218.870 149.461,219.255 149.024 L 219.957 148.228 219.184 148.908 L 218.411 149.588 217.947 148.692 C 217.564 147.951,216.927 147.314,217.266 148.012 M171.535 148.619 C 171.062 149.501,171.160 149.747,171.685 148.997 C 171.940 148.633,172.081 148.268,171.998 148.185 C 171.915 148.102,171.707 148.297,171.535 148.619 M170.039 148.903 C 170.195 149.194,170.550 149.617,170.828 149.843 C 171.140 150.097,171.070 149.895,170.644 149.313 C 169.885 148.275,169.600 148.082,170.039 148.903 M193.492 149.495 C 193.492 149.634,193.677 149.902,193.903 150.090 C 194.241 150.370,194.287 150.324,194.159 149.836 C 194.007 149.254,193.492 148.991,193.492 149.495 M195.517 149.553 L 194.215 149.732 195.345 149.776 C 196.455 149.818,196.465 149.829,195.952 150.397 C 195.553 150.837,195.337 150.897,195.039 150.650 C 194.774 150.430,194.649 150.425,194.649 150.634 C 194.649 151.360,195.354 151.273,196.184 150.443 C 197.248 149.378,197.204 149.320,195.517 149.553 M180.789 150.615 C 180.061 151.488,178.908 153.842,179.110 154.044 C 179.180 154.113,179.450 153.614,179.712 152.935 C 179.973 152.255,180.584 151.276,181.070 150.759 C 181.555 150.242,181.840 149.819,181.703 149.819 C 181.565 149.819,181.154 150.177,180.789 150.615 M209.038 150.328 C 209.317 150.608,209.847 151.226,210.217 151.702 C 211.072 152.802,210.702 152.011,209.776 150.759 C 209.394 150.242,208.958 149.819,208.807 149.819 C 208.656 149.819,208.760 150.048,209.038 150.328 M366.287 152.205 L 365.437 153.145 366.377 152.296 C 367.254 151.504,367.450 151.265,367.227 151.265 C 367.177 151.265,366.754 151.688,366.287 152.205 M174.982 153.724 C 176.007 154.758,176.910 155.604,176.990 155.604 C 177.069 155.604,176.296 154.758,175.271 153.724 C 174.246 152.690,173.343 151.844,173.263 151.844 C 173.184 151.844,173.957 152.690,174.982 153.724 M176.977 152.278 C 177.465 153.221,177.865 153.744,177.863 153.435 C 177.862 153.275,177.595 152.820,177.270 152.422 C 176.877 151.942,176.779 151.893,176.977 152.278 M212.593 153.216 C 211.731 154.439,211.602 154.525,211.401 154.011 C 211.212 153.526,211.173 153.570,211.156 154.284 L 211.135 155.134 211.933 154.369 C 212.662 153.671,213.915 151.844,213.666 151.844 C 213.608 151.844,213.125 152.461,212.593 153.216 M213.160 155.075 C 212.402 155.763,212.221 156.012,212.726 155.672 C 213.525 155.134,214.850 153.852,214.578 153.881 C 214.514 153.888,213.876 154.425,213.160 155.075 M197.903 157.062 C 198.634 157.546,199.686 158.445,200.241 159.059 L 201.249 160.175 202.143 159.301 C 202.635 158.821,203.050 158.280,203.066 158.100 C 203.082 157.920,203.199 158.098,203.326 158.496 L 203.558 159.219 203.586 158.424 C 203.625 157.374,203.426 157.419,202.295 158.713 L 201.347 159.798 199.951 158.466 C 198.451 157.037,197.291 156.182,196.849 156.182 C 196.698 156.182,197.173 156.578,197.903 157.062 M205.536 156.905 C 205.279 157.572,205.305 157.918,205.609 157.918 C 205.988 157.918,206.200 157.198,205.943 156.782 C 205.777 156.515,205.673 156.546,205.536 156.905 M191.310 157.990 L 190.166 159.219 191.396 158.076 C 192.072 157.447,192.625 156.894,192.625 156.847 C 192.625 156.628,192.373 156.847,191.310 157.990 M187.009 157.815 C 186.909 158.076,186.895 158.358,186.978 158.441 C 187.061 158.524,187.129 158.424,187.129 158.218 C 187.129 158.012,187.640 158.413,188.264 159.110 C 189.381 160.356,189.407 160.367,189.927 159.813 C 190.408 159.301,190.409 159.286,189.939 159.640 C 189.381 160.062,189.197 159.932,187.806 158.135 C 187.289 157.466,187.162 157.415,187.009 157.815 M191.798 159.829 C 189.079 162.629,188.497 162.729,187.593 160.552 C 187.354 159.978,187.153 159.677,187.144 159.884 C 187.081 161.471,189.244 163.253,189.965 162.208 C 190.799 161.001,193.326 158.426,194.215 157.877 C 194.693 157.582,194.888 157.341,194.650 157.340 C 194.411 157.340,193.128 158.460,191.798 159.829 M197.542 158.641 C 198.081 159.197,198.588 159.653,198.667 159.653 C 198.747 159.653,198.370 159.197,197.831 158.641 C 197.291 158.084,196.785 157.628,196.705 157.628 C 196.626 157.628,197.002 158.084,197.542 158.641 M207.103 159.002 C 206.573 159.758,206.386 160.157,206.685 159.889 C 207.209 159.421,208.387 157.628,208.170 157.628 C 208.112 157.628,207.632 158.247,207.103 159.002 M199.722 161.492 C 200.852 163.194,201.219 163.279,202.193 162.066 C 202.508 161.674,202.399 161.699,201.723 162.172 L 200.842 162.789 200.034 161.511 C 199.589 160.809,199.096 160.154,198.938 160.056 C 198.779 159.958,199.132 160.604,199.722 161.492 M186.344 165.293 C 186.347 166.088,186.403 166.379,186.469 165.940 C 186.536 165.500,186.534 164.849,186.465 164.493 C 186.397 164.138,186.342 164.497,186.344 165.293 M190.332 164.753 C 189.176 166.223,190.616 168.619,192.656 168.619 C 192.848 168.619,192.431 168.316,191.730 167.945 C 190.135 167.102,189.704 166.110,190.444 164.981 L 190.962 164.191 191.350 165.114 C 191.955 166.553,196.007 167.575,197.456 166.654 C 197.647 166.532,196.926 166.482,195.853 166.543 C 193.287 166.688,191.820 166.115,191.572 164.872 C 191.356 163.793,191.106 163.769,190.332 164.753 M25.808 165.148 C 25.808 165.705,25.868 165.933,25.941 165.654 C 26.013 165.376,26.013 164.920,25.941 164.642 C 25.868 164.364,25.808 164.591,25.808 165.148 M199.180 164.931 C 199.032 165.520,199.052 165.534,199.392 165.080 C 199.599 164.805,199.874 164.674,200.003 164.791 C 200.132 164.908,200.144 164.841,200.029 164.642 C 199.712 164.090,199.362 164.209,199.180 164.931 M328.339 165.437 C 328.339 165.994,328.398 166.222,328.471 165.944 C 328.544 165.665,328.544 165.210,328.471 164.931 C 328.398 164.653,328.339 164.881,328.339 165.437 M200.188 165.735 C 200.164 166.137,199.931 166.787,199.669 167.181 L 199.193 167.896 199.837 167.286 C 200.298 166.849,200.445 166.439,200.356 165.840 C 200.241 165.071,200.228 165.063,200.188 165.735 M206.652 166.594 C 206.405 167.072,206.269 167.462,206.348 167.462 C 206.428 167.462,206.695 167.072,206.941 166.594 C 207.188 166.117,207.325 165.727,207.246 165.727 C 207.166 165.727,206.899 166.117,206.652 166.594 M218.837 167.534 C 217.213 171.090,216.369 173.686,217.629 171.249 C 217.868 170.787,218.237 170.234,218.449 170.020 C 219.598 168.863,220.935 166.468,220.635 166.106 C 220.055 165.407,219.668 165.715,218.837 167.534 M170.141 166.870 C 169.945 167.183,169.903 167.507,170.046 167.595 C 170.189 167.683,170.366 167.591,170.441 167.392 C 170.536 167.138,170.716 167.204,171.035 167.607 C 171.465 168.149,171.472 168.126,171.150 167.245 C 170.750 166.152,170.619 166.103,170.141 166.870 M172.692 168.185 C 172.692 168.344,172.942 168.930,173.247 169.487 C 173.551 170.043,173.801 170.369,173.801 170.210 C 173.801 170.051,173.551 169.465,173.247 168.908 C 172.942 168.351,172.692 168.026,172.692 168.185 M171.434 168.692 C 171.331 168.960,171.421 169.514,171.633 169.923 C 172.150 170.920,172.431 170.187,171.967 169.052 C 171.688 168.368,171.585 168.299,171.434 168.692 M193.999 168.828 C 194.516 168.892,195.362 168.892,195.879 168.828 C 196.396 168.764,195.973 168.712,194.939 168.712 C 193.905 168.712,193.482 168.764,193.999 168.828 M187.998 169.875 C 188.395 170.327,188.980 170.831,189.299 170.995 C 189.908 171.308,189.890 171.290,188.287 169.918 L 187.276 169.053 187.998 169.875 M200.868 170.259 C 200.231 170.829,199.971 171.161,200.289 170.996 C 200.825 170.719,202.423 169.182,202.147 169.209 C 202.080 169.216,201.504 169.688,200.868 170.259 M214.461 170.354 C 214.215 170.832,214.078 171.222,214.157 171.222 C 214.237 171.222,214.504 170.832,214.751 170.354 C 214.997 169.877,215.134 169.487,215.055 169.487 C 214.975 169.487,214.708 169.877,214.461 170.354 M230.631 170.860 C 230.934 171.218,231.080 171.511,230.957 171.511 C 230.619 171.511,231.396 172.366,232.052 172.717 C 232.795 173.115,231.864 171.724,230.762 170.788 L 230.080 170.210 230.631 170.860 M185.394 171.511 C 185.734 171.988,186.077 172.379,186.157 172.379 C 186.236 172.379,186.023 171.988,185.683 171.511 C 185.343 171.034,185.000 170.644,184.921 170.644 C 184.841 170.644,185.054 171.034,185.394 171.511 M174.138 171.367 C 174.138 171.526,174.388 172.111,174.693 172.668 C 174.998 173.225,175.247 173.550,175.247 173.391 C 175.247 173.232,174.998 172.646,174.693 172.090 C 174.388 171.533,174.138 171.208,174.138 171.367 M194.291 172.294 C 194.651 172.363,195.172 172.361,195.448 172.288 C 195.725 172.216,195.430 172.159,194.794 172.163 C 194.158 172.166,193.931 172.225,194.291 172.294 M212.726 173.536 C 212.479 174.013,212.342 174.403,212.422 174.403 C 212.501 174.403,212.768 174.013,213.015 173.536 C 213.262 173.059,213.399 172.668,213.319 172.668 C 213.240 172.668,212.973 173.059,212.726 173.536 M30.937 176.356 L 29.356 178.019 31.020 176.438 C 31.934 175.568,32.683 174.820,32.683 174.775 C 32.683 174.560,32.406 174.811,30.937 176.356 M211.135 176.428 C 210.811 177.064,210.610 177.585,210.690 177.585 C 210.769 177.585,211.100 177.064,211.424 176.428 C 211.749 175.792,211.950 175.271,211.870 175.271 C 211.790 175.271,211.460 175.792,211.135 176.428 M177.730 178.742 C 178.290 179.855,178.814 180.766,178.894 180.766 C 178.973 180.766,178.580 179.855,178.019 178.742 C 177.458 177.628,176.934 176.717,176.855 176.717 C 176.775 176.717,177.169 177.628,177.730 178.742 M209.255 179.899 C 208.852 180.694,208.588 181.345,208.667 181.345 C 208.747 181.345,209.141 180.694,209.544 179.899 C 209.948 179.103,210.212 178.453,210.133 178.453 C 210.053 178.453,209.658 179.103,209.255 179.899 M34.841 180.550 L 33.406 182.068 34.924 180.633 C 35.759 179.843,36.443 179.160,36.443 179.114 C 36.443 178.898,36.175 179.139,34.841 180.550 M179.610 182.213 C 179.934 182.849,180.265 183.369,180.344 183.369 C 180.424 183.369,180.223 182.849,179.899 182.213 C 179.574 181.576,179.243 181.056,179.164 181.056 C 179.084 181.056,179.285 181.576,179.610 182.213 M241.791 181.851 C 241.789 181.970,241.334 182.547,240.778 183.133 C 239.505 184.477,239.392 184.095,242.033 187.364 C 243.278 188.905,244.532 190.528,244.820 190.971 C 245.812 192.499,245.613 191.479,243.959 186.566 C 242.568 182.434,241.803 180.771,241.791 181.851 M148.373 182.979 C 148.373 183.139,148.698 183.574,149.096 183.948 C 149.494 184.322,149.819 184.497,149.819 184.338 C 149.819 184.179,149.494 183.743,149.096 183.369 C 148.698 182.996,148.373 182.820,148.373 182.979 M206.797 184.526 C 206.315 185.481,205.986 186.262,206.065 186.262 C 206.145 186.262,206.604 185.481,207.086 184.526 C 207.568 183.572,207.897 182.791,207.817 182.791 C 207.738 182.791,207.279 183.572,206.797 184.526 M52.045 185.322 L 51.048 186.406 52.133 185.410 C 53.143 184.482,53.351 184.237,53.130 184.237 C 53.081 184.237,52.593 184.725,52.045 185.322 M148.259 184.695 C 147.997 185.380,148.047 185.740,148.378 185.536 C 148.539 185.436,148.597 185.233,148.505 185.085 C 148.414 184.937,148.466 184.816,148.621 184.816 C 148.776 184.816,148.954 184.969,149.017 185.156 C 149.081 185.348,149.288 185.399,149.492 185.273 C 149.765 185.104,149.725 184.952,149.330 184.652 C 148.648 184.135,148.472 184.142,148.259 184.695 M181.524 185.466 C 182.545 187.198,184.029 189.443,184.152 189.443 C 184.235 189.443,184.112 189.150,183.878 188.792 C 183.644 188.435,183.032 187.458,182.518 186.623 C 182.005 185.788,181.523 185.105,181.448 185.105 C 181.372 185.105,181.407 185.268,181.524 185.466 M146.645 187.780 C 146.292 188.774,145.896 189.848,145.766 190.166 C 145.313 191.273,145.185 192.272,145.575 191.654 C 145.762 191.358,146.362 190.521,146.909 189.792 C 147.456 189.063,147.778 188.425,147.625 188.374 C 147.471 188.323,147.396 187.762,147.456 187.127 C 147.611 185.507,147.389 185.686,146.645 187.780 M148.203 186.406 C 148.089 186.725,147.943 187.081,147.880 187.198 C 147.816 187.316,147.999 187.324,148.286 187.217 C 148.746 187.044,148.760 187.079,148.404 187.516 C 148.183 187.788,148.063 188.073,148.139 188.148 C 148.485 188.495,149.005 186.884,148.714 186.366 C 148.423 185.848,148.404 185.850,148.203 186.406 M185.521 191.563 C 185.966 192.147,186.389 192.625,186.460 192.625 C 186.661 192.625,185.409 190.933,185.039 190.704 C 184.858 190.592,185.075 190.979,185.521 191.563 M200.852 196.127 C 199.331 199.166,198.131 201.698,198.186 201.753 C 198.240 201.808,199.549 199.321,201.094 196.226 C 202.639 193.132,203.839 190.600,203.760 190.600 C 203.682 190.600,202.373 193.087,200.852 196.127 M188.820 195.556 C 189.949 196.760,190.043 196.967,189.744 197.581 C 189.428 198.231,189.433 198.237,189.861 197.703 C 190.476 196.936,190.485 196.958,188.937 195.505 L 187.563 194.215 188.820 195.556 M201.634 196.015 C 201.391 196.468,201.636 197.177,202.908 199.703 C 203.774 201.423,204.483 202.724,204.483 202.594 C 204.483 202.171,202.385 195.958,202.156 195.703 C 202.034 195.566,201.799 195.707,201.634 196.015 M187.883 198.288 C 187.643 198.915,187.662 199.709,187.912 199.459 C 188.141 199.229,188.374 197.831,188.183 197.831 C 188.115 197.831,187.980 198.037,187.883 198.288 M195.564 206.954 C 195.079 208.017,195.172 208.244,195.696 207.277 C 195.941 206.826,196.087 206.402,196.020 206.336 C 195.954 206.270,195.749 206.548,195.564 206.954 M249.786 207.504 L 248.380 208.193 250.017 208.398 C 251.901 208.633,252.012 208.579,251.754 207.554 C 251.525 206.642,251.546 206.642,249.786 207.504 M138.898 208.351 C 138.846 208.984,138.941 209.034,140.137 209.002 C 141.233 208.971,141.358 208.911,140.951 208.611 C 140.687 208.415,140.134 208.318,139.722 208.396 C 139.310 208.473,139.137 208.459,139.337 208.365 C 139.536 208.271,139.626 208.075,139.536 207.929 C 139.245 207.457,138.956 207.648,138.898 208.351 M184.247 208.224 C 183.881 208.909,183.864 209.197,184.202 208.988 C 184.457 208.830,184.855 207.664,184.654 207.664 C 184.595 207.664,184.412 207.916,184.247 208.224 M249.602 210.868 C 248.091 211.164,244.935 211.758,242.588 212.187 C 240.242 212.616,238.370 213.015,238.428 213.073 C 238.487 213.131,241.545 212.914,245.224 212.591 C 248.904 212.268,252.184 212.003,252.513 212.003 C 252.992 212.003,253.093 211.848,253.020 211.230 C 252.902 210.235,252.854 210.230,249.602 210.868 M227.223 213.449 C 226.951 216.618,227.039 217.839,227.549 218.006 C 227.949 218.137,227.976 216.671,227.646 212.871 L 227.458 210.701 227.223 213.449 M137.672 212.003 C 137.672 212.321,137.802 212.581,137.961 212.581 C 138.120 212.581,138.250 212.321,138.250 212.003 C 138.250 211.685,138.120 211.424,137.961 211.424 C 137.802 211.424,137.672 211.685,137.672 212.003 M138.708 211.901 C 138.474 212.509,138.997 212.639,142.795 212.920 C 147.205 213.245,147.928 213.109,144.449 212.608 C 143.028 212.404,141.605 212.128,141.287 211.995 C 140.241 211.557,138.859 211.507,138.708 211.901 M192.961 212.449 C 192.476 213.513,192.569 213.740,193.093 212.773 C 193.337 212.321,193.484 211.898,193.417 211.831 C 193.351 211.765,193.146 212.043,192.961 212.449 M141.142 212.292 C 141.142 212.451,140.850 212.579,140.492 212.577 C 139.965 212.573,139.924 212.519,140.275 212.292 C 140.836 211.930,141.142 211.930,141.142 212.292 M147.726 213.364 C 148.085 213.434,148.606 213.431,148.883 213.359 C 149.159 213.286,148.865 213.230,148.228 213.233 C 147.592 213.236,147.366 213.295,147.726 213.364 M250.181 214.635 L 247.433 215.465 250.759 215.289 C 254.525 215.089,254.347 215.140,254.092 214.338 C 253.855 213.590,253.572 213.611,250.181 214.635 M136.690 215.065 C 136.442 215.711,136.270 215.661,139.407 215.847 C 141.371 215.963,141.866 215.932,141.142 215.740 C 140.586 215.592,139.349 215.453,138.395 215.431 C 137.007 215.398,136.833 215.348,137.527 215.177 C 138.004 215.060,138.243 214.948,138.057 214.929 C 137.871 214.911,137.530 214.823,137.299 214.734 C 137.060 214.642,136.797 214.785,136.690 215.065 M180.384 216.210 C 179.705 217.635,179.801 217.877,180.511 216.531 C 180.834 215.919,181.046 215.368,180.984 215.305 C 180.921 215.243,180.652 215.650,180.384 216.210 M162.899 216.910 C 162.975 217.700,162.926 218.278,162.791 218.194 C 162.656 218.111,162.545 218.180,162.545 218.349 C 162.545 218.517,162.740 218.655,162.979 218.655 C 163.512 218.655,163.512 218.881,162.979 219.812 C 162.752 220.210,162.567 220.665,162.568 220.824 C 162.570 220.983,162.828 220.625,163.143 220.029 C 163.767 218.848,164.164 218.661,164.370 219.450 C 164.491 219.910,164.506 219.908,164.536 219.423 C 164.556 219.116,164.325 218.826,163.991 218.739 C 163.387 218.581,163.324 218.346,163.407 216.558 C 163.438 215.878,163.327 215.474,163.109 215.474 C 162.866 215.474,162.802 215.907,162.899 216.910 M251.660 216.608 C 251.345 216.804,251.407 216.936,251.949 217.221 C 252.329 217.421,252.730 217.724,252.840 217.895 C 252.951 218.065,253.139 218.107,253.259 217.987 C 253.623 217.623,252.117 216.324,251.660 216.608 M253.975 218.004 C 255.062 220.022,255.242 220.218,254.971 219.089 C 254.635 217.684,253.905 216.341,253.477 216.341 C 253.198 216.341,253.346 216.836,253.975 218.004 M248.938 217.117 C 249.049 217.406,249.569 218.404,250.094 219.334 C 250.619 220.264,251.048 221.133,251.048 221.265 C 251.048 221.398,251.213 221.678,251.413 221.888 C 251.614 222.098,251.944 222.645,252.147 223.103 C 252.350 223.561,252.575 223.877,252.648 223.804 C 253.033 223.419,249.973 216.771,249.369 216.683 C 248.863 216.609,248.777 216.695,248.938 217.117 M136.392 218.035 C 136.141 218.520,135.942 219.085,135.949 219.291 C 135.956 219.498,136.226 219.167,136.549 218.555 C 136.871 217.944,137.070 217.379,136.991 217.299 C 136.912 217.220,136.642 217.551,136.392 218.035 M140.154 219.242 C 139.691 220.192,139.377 221.035,139.457 221.115 C 139.538 221.196,139.852 220.773,140.156 220.175 C 140.460 219.578,140.789 219.024,140.887 218.944 C 141.193 218.695,141.483 217.498,141.234 217.506 C 141.104 217.510,140.618 218.291,140.154 219.242 M225.418 219.072 C 225.330 219.301,225.319 219.724,225.394 220.012 C 225.483 220.354,225.541 220.260,225.563 219.740 C 225.609 218.655,225.944 218.741,226.690 220.029 C 227.036 220.625,227.321 220.983,227.324 220.824 C 227.345 219.716,225.738 218.238,225.418 219.072 M176.014 221.515 C 175.927 221.656,176.038 221.922,176.261 222.107 C 176.545 222.343,176.723 222.351,176.858 222.133 C 176.963 221.962,176.942 221.841,176.811 221.864 C 176.226 221.965,176.031 221.804,176.428 221.547 C 176.689 221.379,176.724 221.265,176.517 221.263 C 176.328 221.260,176.102 221.374,176.014 221.515 M227.355 221.442 C 227.342 221.622,227.522 222.208,227.754 222.743 C 227.987 223.279,228.176 223.521,228.175 223.283 C 228.173 222.748,227.388 220.985,227.355 221.442 M180.188 222.434 C 179.852 222.673,179.911 222.698,180.450 222.545 C 180.979 222.395,181.283 222.512,181.715 223.032 L 182.284 223.717 181.852 222.993 C 181.361 222.170,180.817 221.988,180.188 222.434 M225.358 223.355 C 225.316 224.491,225.395 224.728,225.813 224.724 C 226.558 224.718,227.180 224.270,226.784 224.025 C 226.608 223.916,226.464 223.965,226.464 224.133 C 226.464 225.121,225.617 224.294,225.519 223.210 L 225.408 221.981 225.358 223.355 M164.281 223.403 C 164.281 223.947,164.118 224.457,163.919 224.537 C 163.703 224.624,163.761 224.692,164.064 224.706 C 164.465 224.724,164.570 224.490,164.570 223.572 C 164.570 222.936,164.505 222.415,164.425 222.415 C 164.346 222.415,164.281 222.860,164.281 223.403 M187.755 224.018 C 187.270 225.082,187.363 225.309,187.887 224.342 C 188.131 223.890,188.277 223.467,188.211 223.401 C 188.145 223.334,187.940 223.612,187.755 224.018 M228.380 224.729 C 228.481 225.286,228.678 226.001,228.817 226.320 C 228.991 226.717,229.013 226.581,228.887 225.886 C 228.786 225.329,228.589 224.613,228.450 224.295 C 228.276 223.898,228.254 224.034,228.380 224.729 M160.975 225.762 C 160.869 226.186,160.837 226.588,160.906 226.656 C 160.974 226.725,161.117 226.434,161.223 226.010 C 161.329 225.586,161.361 225.183,161.292 225.115 C 161.224 225.047,161.081 225.338,160.975 225.762 M257.509 227.169 C 257.597 227.398,257.815 228.130,257.995 228.797 C 258.201 229.562,258.422 229.907,258.596 229.734 C 258.861 229.468,257.874 226.753,257.512 226.753 C 257.422 226.753,257.421 226.941,257.509 227.169 M207.276 227.671 C 207.541 227.964,207.834 228.119,207.928 228.017 C 208.022 227.915,207.935 227.773,207.735 227.701 C 207.535 227.630,207.432 227.474,207.505 227.355 C 207.579 227.236,207.449 227.139,207.217 227.139 C 206.868 227.139,206.878 227.232,207.276 227.671 M160.412 228.236 C 160.179 229.399,160.183 229.790,160.425 229.549 C 160.639 229.335,160.896 227.332,160.709 227.332 C 160.645 227.332,160.512 227.739,160.412 228.236 M132.395 228.551 C 131.913 229.603,131.515 231.092,131.716 231.092 C 131.905 231.092,133.086 227.856,132.948 227.717 C 132.883 227.653,132.635 228.028,132.395 228.551 M217.757 228.127 C 217.613 230.577,217.690 238.032,217.860 238.032 C 217.979 238.033,218.077 235.691,218.077 232.827 C 218.077 229.964,218.012 227.621,217.932 227.621 C 217.852 227.621,217.774 227.849,217.757 228.127 M184.424 230.473 L 183.599 231.815 184.379 231.092 C 185.300 230.237,185.772 229.444,185.467 229.261 C 185.347 229.189,184.878 229.734,184.424 230.473 M229.697 230.369 C 229.687 230.687,229.787 231.468,229.918 232.104 C 230.120 233.077,230.157 233.123,230.157 232.393 C 230.156 231.380,229.724 229.479,229.697 230.369 M159.219 236.009 C 159.104 237.458,159.076 238.709,159.155 238.789 C 159.235 238.868,159.394 237.747,159.508 236.298 C 159.623 234.848,159.652 233.597,159.572 233.518 C 159.493 233.438,159.334 234.559,159.219 236.009 M230.297 234.707 C 230.300 235.343,230.360 235.570,230.429 235.210 C 230.498 234.850,230.495 234.330,230.423 234.053 C 230.350 233.777,230.294 234.071,230.297 234.707 M161.133 234.924 C 161.108 235.503,161.237 235.718,161.605 235.715 C 161.926 235.712,161.991 235.633,161.783 235.498 C 161.603 235.381,161.390 235.025,161.311 234.707 C 161.200 234.264,161.158 234.314,161.133 234.924 M227.933 236.081 C 227.948 236.516,228.011 236.588,228.121 236.298 C 228.212 236.059,228.429 235.768,228.604 235.652 C 228.801 235.521,228.729 235.437,228.416 235.435 C 228.076 235.432,227.918 235.644,227.933 236.081 M230.506 237.396 L 230.646 238.756 230.744 237.634 C 230.798 237.016,230.735 236.404,230.604 236.273 C 230.474 236.143,230.430 236.648,230.506 237.396 M179.089 244.819 C 178.777 245.502,179.099 246.160,179.532 245.727 C 179.628 245.631,179.550 245.553,179.358 245.553 C 179.096 245.553,179.090 245.406,179.334 244.950 C 179.511 244.618,179.602 244.292,179.535 244.226 C 179.469 244.159,179.268 244.426,179.089 244.819 M186.773 245.474 C 187.293 245.538,188.074 245.537,188.508 245.471 C 188.943 245.405,188.518 245.352,187.563 245.354 C 186.609 245.355,186.253 245.409,186.773 245.474 M199.755 245.481 C 199.681 245.600,200.292 245.660,201.112 245.614 C 203.577 245.476,203.878 245.345,201.825 245.303 C 200.760 245.282,199.829 245.362,199.755 245.481 M204.917 245.553 C 204.552 245.710,204.499 245.802,204.772 245.802 C 205.011 245.802,205.466 245.690,205.785 245.553 C 206.149 245.396,206.203 245.305,205.929 245.305 C 205.691 245.305,205.235 245.416,204.917 245.553 M197.831 245.987 C 198.228 246.214,198.684 246.400,198.843 246.400 C 199.002 246.400,198.807 246.214,198.409 245.987 C 198.012 245.760,197.556 245.574,197.397 245.574 C 197.238 245.574,197.433 245.760,197.831 245.987 M221.258 252.996 C 221.258 253.775,222.405 254.202,222.435 253.435 C 222.453 252.999,222.493 253.009,222.722 253.507 L 222.989 254.085 222.916 253.507 C 222.844 252.932,221.258 252.443,221.258 252.996 M175.303 254.841 C 175.125 255.352,175.030 255.820,175.092 255.882 C 175.154 255.944,175.350 255.577,175.528 255.065 C 175.706 254.554,175.802 254.086,175.740 254.024 C 175.678 253.962,175.481 254.329,175.303 254.841 M222.713 254.881 C 222.718 255.080,223.054 255.763,223.458 256.399 C 224.235 257.620,224.184 256.889,223.383 255.315 C 222.949 254.461,222.699 254.299,222.713 254.881 M201.466 255.065 C 201.379 255.206,201.534 255.499,201.811 255.716 C 202.260 256.068,202.274 256.059,201.937 255.628 C 201.618 255.219,201.640 255.125,202.082 255.011 C 202.535 254.893,202.539 254.871,202.114 254.842 C 201.845 254.823,201.554 254.924,201.466 255.065 M190.776 258.447 C 190.499 259.169,190.569 259.298,190.962 258.786 C 191.161 258.527,191.714 258.261,192.191 258.196 C 192.991 258.086,192.976 258.073,192.005 258.033 C 191.282 258.003,190.896 258.133,190.776 258.447 M196.316 258.484 C 196.676 258.553,197.196 258.550,197.473 258.478 C 197.749 258.405,197.455 258.349,196.819 258.352 C 196.182 258.355,195.956 258.414,196.316 258.484 M208.677 266.956 C 208.924 267.433,209.191 267.824,209.270 267.824 C 209.350 267.824,209.213 267.433,208.966 266.956 C 208.719 266.479,208.452 266.088,208.373 266.088 C 208.293 266.088,208.430 266.479,208.677 266.956 M68.547 279.537 C 67.844 280.253,67.334 280.839,67.414 280.839 C 67.493 280.839,68.133 280.253,68.836 279.537 C 69.538 278.821,70.048 278.236,69.969 278.236 C 69.889 278.236,69.249 278.821,68.547 279.537 M64.624 283.225 L 63.774 284.165 64.714 283.315 C 65.591 282.524,65.787 282.285,65.564 282.285 C 65.514 282.285,65.091 282.708,64.624 283.225 M59.860 287.708 L 58.279 289.371 59.942 287.790 C 60.857 286.921,61.605 286.172,61.605 286.127 C 61.605 285.912,61.329 286.163,59.860 287.708 M64.922 291.323 L 63.196 293.131 65.004 291.405 C 66.683 289.801,66.944 289.516,66.730 289.516 C 66.685 289.516,65.872 290.329,64.922 291.323 M313.073 291.775 C 313.197 291.993,313.065 292.425,312.765 292.788 C 312.253 293.406,312.257 293.406,312.942 292.773 C 313.527 292.232,313.578 292.064,313.251 291.760 C 312.933 291.466,312.899 291.468,313.073 291.775 M152.451 293.012 C 152.430 293.550,152.630 293.856,153.159 294.097 C 154.173 294.559,154.463 294.501,153.581 294.013 C 153.184 293.793,152.774 293.310,152.670 292.938 C 152.483 292.274,152.479 292.275,152.451 293.012 M155.604 295.155 C 156.001 295.383,156.457 295.569,156.616 295.569 C 156.775 295.569,156.580 295.383,156.182 295.155 C 155.785 294.928,155.329 294.742,155.170 294.742 C 155.011 294.742,155.206 294.928,155.604 295.155 M162.279 296.650 C 162.266 296.994,162.093 297.342,161.894 297.422 C 161.611 297.537,161.613 297.573,161.904 297.591 C 162.343 297.618,162.662 296.920,162.451 296.394 C 162.369 296.190,162.291 296.305,162.279 296.650 M178.197 299.976 C 178.179 300.400,178.001 300.813,177.802 300.893 C 177.519 301.007,177.521 301.044,177.811 301.062 C 178.270 301.090,178.547 300.425,178.366 299.728 C 178.275 299.375,178.220 299.456,178.197 299.976 M54.795 301.446 L 53.651 302.675 54.881 301.532 C 56.024 300.469,56.243 300.217,56.024 300.217 C 55.977 300.217,55.424 300.770,54.795 301.446 M95.576 301.446 L 94.432 302.675 95.662 301.532 C 96.805 300.469,97.024 300.217,96.805 300.217 C 96.758 300.217,96.205 300.770,95.576 301.446 M219.740 303.564 C 218.658 304.150,218.724 304.395,219.812 303.832 C 220.289 303.585,220.680 303.322,220.680 303.246 C 220.680 303.060,220.649 303.071,219.740 303.564 M82.845 304.338 L 81.996 305.278 82.936 304.429 C 83.812 303.637,84.009 303.398,83.785 303.398 C 83.735 303.398,83.312 303.821,82.845 304.338 M80.531 306.363 L 79.682 307.303 80.622 306.453 C 81.498 305.662,81.695 305.423,81.471 305.423 C 81.422 305.423,80.999 305.846,80.531 306.363 M284.671 307.647 C 284.949 307.720,285.405 307.720,285.683 307.647 C 285.962 307.574,285.734 307.515,285.177 307.515 C 284.620 307.515,284.393 307.574,284.671 307.647 M108.670 311.127 C 109.184 311.191,110.095 311.192,110.695 311.129 C 111.295 311.067,110.875 311.014,109.761 311.013 C 108.648 311.012,108.157 311.063,108.670 311.127 M270.860 313.413 C 270.340 313.855,270.234 314.031,270.595 313.852 C 271.125 313.589,272.120 312.637,271.836 312.664 C 271.777 312.670,271.338 313.007,270.860 313.413 M119.017 314.967 C 119.638 315.604,120.211 316.124,120.291 316.124 C 120.370 316.124,119.927 315.604,119.306 314.967 C 118.685 314.331,118.111 313.811,118.032 313.811 C 117.952 313.811,118.395 314.331,119.017 314.967 M282.216 314.304 C 282.576 314.374,283.096 314.371,283.373 314.299 C 283.649 314.226,283.355 314.170,282.719 314.173 C 282.082 314.176,281.856 314.235,282.216 314.304 M271.940 322.487 C 271.940 323.044,271.999 323.272,272.072 322.993 C 272.145 322.715,272.145 322.260,272.072 321.981 C 271.999 321.703,271.940 321.931,271.940 322.487 M122.442 324.078 C 122.443 325.351,122.494 325.835,122.555 325.155 C 122.616 324.475,122.615 323.434,122.553 322.841 C 122.491 322.249,122.441 322.805,122.442 324.078 M287.711 330.212 C 288.071 330.281,288.592 330.278,288.868 330.206 C 289.145 330.134,288.850 330.077,288.214 330.080 C 287.578 330.083,287.351 330.143,287.711 330.212 M283.662 330.501 C 284.022 330.570,284.542 330.568,284.819 330.495 C 285.096 330.423,284.801 330.366,284.165 330.369 C 283.529 330.373,283.302 330.432,283.662 330.501 M229.424 334.635 C 229.424 335.192,229.483 335.419,229.556 335.141 C 229.629 334.863,229.629 334.407,229.556 334.129 C 229.483 333.850,229.424 334.078,229.424 334.635 M166.377 335.413 C 166.656 335.485,167.111 335.485,167.390 335.413 C 167.668 335.340,167.440 335.280,166.884 335.280 C 166.327 335.280,166.099 335.340,166.377 335.413 M172.596 335.707 C 172.954 335.776,173.539 335.776,173.897 335.707 C 174.255 335.638,173.962 335.581,173.247 335.581 C 172.531 335.581,172.238 335.638,172.596 335.707 M177.368 335.991 C 177.646 336.064,178.102 336.064,178.380 335.991 C 178.659 335.918,178.431 335.859,177.874 335.859 C 177.317 335.859,177.090 335.918,177.368 335.991 M285.976 335.996 C 286.336 336.065,286.856 336.063,287.133 335.990 C 287.409 335.918,287.115 335.861,286.479 335.865 C 285.842 335.868,285.616 335.927,285.976 335.996 M279.904 336.291 C 280.424 336.355,281.205 336.354,281.639 336.288 C 282.074 336.222,281.649 336.169,280.694 336.171 C 279.740 336.172,279.384 336.226,279.904 336.291 M303.766 339.552 C 303.766 340.268,303.823 340.560,303.892 340.202 C 303.961 339.845,303.961 339.259,303.892 338.901 C 303.823 338.543,303.766 338.836,303.766 339.552 M214.673 339.841 C 214.673 340.398,214.733 340.625,214.805 340.347 C 214.878 340.069,214.878 339.613,214.805 339.335 C 214.733 339.056,214.673 339.284,214.673 339.841 M169.848 340.908 C 170.127 340.981,170.582 340.981,170.860 340.908 C 171.139 340.835,170.911 340.776,170.354 340.776 C 169.798 340.776,169.570 340.835,169.848 340.908 M173.756 341.202 C 174.116 341.272,174.636 341.269,174.913 341.197 C 175.190 341.124,174.895 341.068,174.259 341.071 C 173.623 341.074,173.396 341.133,173.756 341.202 M194.649 342.589 C 195.513 343.463,196.285 344.179,196.365 344.179 C 196.444 344.179,195.803 343.463,194.939 342.589 C 194.074 341.714,193.302 340.998,193.223 340.998 C 193.143 340.998,193.785 341.714,194.649 342.589 M177.874 341.487 C 178.272 341.568,178.705 341.784,178.836 341.967 C 178.996 342.189,179.036 342.156,178.958 341.866 C 178.893 341.621,178.473 341.412,177.996 341.386 C 177.268 341.346,177.251 341.360,177.874 341.487 M197.252 344.848 C 197.252 344.898,197.675 345.321,198.192 345.788 L 199.132 346.638 198.283 345.698 C 197.491 344.822,197.252 344.625,197.252 344.848 M215.251 346.204 C 215.251 346.761,215.311 346.988,215.384 346.710 C 215.457 346.432,215.457 345.976,215.384 345.698 C 215.311 345.419,215.251 345.647,215.251 346.204 M88.937 347.939 C 89.558 348.576,90.132 349.096,90.211 349.096 C 90.291 349.096,89.848 348.576,89.226 347.939 C 88.605 347.303,88.032 346.782,87.952 346.782 C 87.872 346.782,88.316 347.303,88.937 347.939 M199.566 346.873 C 199.566 346.923,199.989 347.346,200.506 347.813 L 201.446 348.662 200.597 347.722 C 199.805 346.846,199.566 346.649,199.566 346.873 M211.991 350.325 C 213.189 351.602,213.449 351.832,213.449 351.615 C 213.449 351.568,212.831 350.950,212.075 350.241 L 210.701 348.952 211.991 350.325 M97.113 351.909 C 97.633 351.973,98.414 351.972,98.848 351.906 C 99.283 351.840,98.858 351.787,97.903 351.789 C 96.949 351.790,96.593 351.844,97.113 351.909 M177.007 353.811 C 177.007 354.217,176.523 354.297,173.608 354.375 L 170.210 354.467 173.617 354.529 C 176.936 354.590,177.966 354.298,177.187 353.518 C 177.088 353.419,177.007 353.551,177.007 353.811 M210.557 356.417 C 210.557 356.467,210.980 356.890,211.497 357.357 L 212.437 358.207 211.587 357.267 C 210.795 356.391,210.557 356.194,210.557 356.417 M136.272 370.517 C 136.230 371.453,137.010 372.813,137.589 372.813 C 137.690 372.813,137.499 372.520,137.165 372.162 C 136.831 371.804,136.504 371.056,136.438 370.499 L 136.318 369.487 136.272 370.517 M160.452 372.728 C 160.811 372.797,161.332 372.795,161.609 372.722 C 161.885 372.650,161.591 372.593,160.954 372.596 C 160.318 372.600,160.092 372.659,160.452 372.728 M175.005 373.584 C 174.992 373.929,174.819 374.276,174.620 374.357 C 174.337 374.471,174.339 374.507,174.629 374.525 C 175.068 374.552,175.388 373.854,175.177 373.328 C 175.095 373.124,175.017 373.239,175.005 373.584 M223.928 376.862 C 223.928 377.419,223.988 377.646,224.061 377.368 C 224.133 377.090,224.133 376.634,224.061 376.356 C 223.988 376.077,223.928 376.305,223.928 376.862 " stroke="none" fill="#999999" fill-rule="evenodd"></path></g></svg>